<?xml version="1.0" encoding="utf-8"?>
<!-- Generator: Adobe Illustrator 16.0.0, SVG Export Plug-In . SVG Version: 6.00 Build 0)  -->
<!DOCTYPE svg PUBLIC "-//W3C//DTD SVG 1.1//EN" "http://www.w3.org/Graphics/SVG/1.1/DTD/svg11.dtd">
<svg version="1.1" id="Layer_1" xmlns="http://www.w3.org/2000/svg" xmlns:xlink="http://www.w3.org/1999/xlink" x="0px" y="0px"
	 width="168.377px" height="148.818px" viewBox="0 0 168.377 148.818" enable-background="new 0 0 168.377 148.818"
	 xml:space="preserve">
<g>
	<g>
		<polygon fill="#2B2724" points="127.537,117.819 158.537,148.818 168.377,148.818 168.377,0 165.389,0 		"/>
		<polygon fill="#322F2E" points="127.537,117.819 165.389,0 157.904,0 127.537,30.365 		"/>
		<polygon fill="#393837" points="127.537,30.365 157.904,0 87.557,0 97.861,30.365 		"/>
		<polygon fill="#272320" points="117.582,148.818 158.537,148.818 127.537,117.819 		"/>
		<polygon points="83.811,117.819 83.811,148.818 117.582,148.818 127.537,117.819 		"/>
		<polygon fill="#383736" points="105.379,52.523 127.537,117.819 127.537,30.365 		"/>
		<polygon fill="#3A3938" points="127.537,30.365 97.861,30.365 105.379,52.523 		"/>
		<polygon fill="#393837" points="83.811,74.093 127.537,117.819 105.379,52.523 		"/>
		<polygon fill="#363533" points="83.811,117.819 127.537,117.819 83.811,74.093 		"/>
		<polygon fill="#3B3A39" points="105.379,52.523 97.861,30.365 83.811,30.365 83.811,74.093 		"/>
		<polygon fill="#3A3938" points="97.861,30.365 87.557,0 83.811,0 83.811,30.365 		"/>
		<polygon points="40.084,117.819 50.039,148.818 83.811,148.818 83.811,117.819 		"/>
		<polygon fill="#302D2C" points="40.084,117.819 83.811,117.819 83.811,74.093 		"/>
		<polygon fill="#333230" points="83.811,74.093 83.811,30.365 69.768,30.365 62.242,52.523 		"/>
		<polygon fill="#2D2927" points="83.811,30.365 83.811,0 80.072,0 69.768,30.365 		"/>
		<polygon points="69.768,30.365 80.072,0 9.719,0 40.084,30.365 		"/>
		<polygon fill="#363433" points="62.242,52.523 40.084,117.819 83.811,74.093 		"/>
		<polygon fill="#302D2B" points="69.768,30.365 40.084,30.365 62.242,52.523 		"/>
		<polygon fill="#312F2D" points="40.084,30.365 40.084,117.819 62.242,52.523 		"/>
		<polygon points="9.084,148.818 50.039,148.818 40.084,117.819 		"/>
		<polygon points="40.084,30.365 9.719,0 2.232,0 40.084,117.819 		"/>
		<polygon points="2.232,0 0,0 0,148.818 9.084,148.818 40.084,117.819 		"/>
	</g>
	<g>
		<polygon fill="#3DAA35" points="133.363,25.235 133.363,123.583 109.449,99.671 		"/>
		<polygon fill="#A8CD76" points="133.363,25.235 109.449,99.671 109.449,49.148 		"/>
		<polygon fill="#E7EEC5" points="133.363,25.235 109.449,49.148 92.305,49.148 84.191,25.235 		"/>
		<polygon fill="#32A137" points="133.363,123.583 101.77,123.583 109.449,99.671 		"/>
		<polygon fill="#1E7E35" points="109.449,99.671 101.77,123.583 84.188,123.583 84.188,99.671 		"/>
		<polygon fill="#E6EBB0" points="109.449,49.148 109.449,99.671 96.648,61.95 		"/>
		<polygon fill="#F0F3CE" points="109.449,49.148 96.648,61.95 92.305,49.148 		"/>
		<polygon fill="#EAEEC4" points="96.648,61.95 109.449,99.671 84.188,74.409 		"/>
		<polygon fill="#D2E2A4" points="109.449,99.671 84.188,99.671 84.188,74.409 		"/>
		<polygon fill="#F5F5F6" points="92.305,49.148 96.648,61.95 84.188,74.409 84.188,49.148 		"/>
		<polygon fill="#EAF1D6" points="84.191,25.235 92.305,49.148 84.188,49.148 84.188,25.243 		"/>
		<polygon fill="#298B36" points="84.191,25.235 84.188,25.243 84.188,25.235 		"/>
		<polygon fill="#0F2A0F" points="84.188,99.671 84.188,123.583 66.607,123.583 58.928,99.671 		"/>
		<polygon fill="#9EC649" points="84.188,74.409 84.188,99.671 58.928,99.671 		"/>
		<polygon fill="#B9D584" points="84.188,49.148 84.188,74.409 71.729,61.95 76.076,49.148 		"/>
		<polygon fill="#6EB52C" points="84.188,25.243 84.188,49.148 76.076,49.148 		"/>
		<polygon fill="#3B952D" points="84.188,25.235 84.188,25.243 76.076,49.148 58.928,49.148 35.014,25.235 		"/>
		<polygon fill="#D2E19E" points="84.188,74.409 58.928,99.671 71.729,61.95 		"/>
		<polygon fill="#90C256" points="76.076,49.148 71.729,61.95 58.928,49.148 		"/>
		<polygon fill="#A4CA64" points="71.729,61.95 58.928,99.671 58.928,49.148 		"/>
		<polygon fill="#0A3A19" points="58.928,99.671 66.607,123.583 35.014,123.583 		"/>
		<polygon fill="#17642A" points="58.928,49.148 58.928,99.671 35.014,25.235 		"/>
		<polygon fill="#1C4D21" points="35.014,25.235 58.928,99.671 35.014,123.583 		"/>
	</g>
</g>
<g>
</g>
<g>
</g>
<g>
</g>
<g>
</g>
<g>
</g>
<g>
</g>
</svg>
