<?xml version="1.0" encoding="utf-8"?>
<!-- Generator: Adobe Illustrator 16.0.0, SVG Export Plug-In . SVG Version: 6.00 Build 0)  -->
<!DOCTYPE svg PUBLIC "-//W3C//DTD SVG 1.1//EN" "http://www.w3.org/Graphics/SVG/1.1/DTD/svg11.dtd">
<svg version="1.1" id="Layer_1" xmlns="http://www.w3.org/2000/svg" xmlns:xlink="http://www.w3.org/1999/xlink" x="0px" y="0px"
	 width="168.377px" height="148.818px" viewBox="0 0 168.377 148.818" enable-background="new 0 0 168.377 148.818"
	 xml:space="preserve">
<g>
	<g>
		<path fill="#1F1D20" d="M6.03,144.033c-0.454-0.504-0.918-1.004-1.361-1.516c-1.512-1.744-2.95-3.529-4.328-5.347
			c-0.111-0.146-0.229-0.288-0.338-0.435c0,0-0.001-0.002-0.002-0.002v12.087h10.603c-0.267-0.261-0.53-0.522-0.795-0.786
			C8.503,146.729,7.253,145.389,6.03,144.033z"/>
		<path fill="#1F1D20" d="M160.708,2.762c0.341,0.367,0.666,0.742,1,1.113c0.531,0.589,1.065,1.177,1.581,1.775
			c0.354,0.409,0.689,0.825,1.035,1.237c0.479,0.572,0.957,1.143,1.421,1.722c0.347,0.434,0.683,0.875,1.021,1.312
			c0.44,0.57,0.883,1.14,1.312,1.717c0.099,0.133,0.204,0.262,0.302,0.396V0.002h-10.32c0.248,0.25,0.482,0.508,0.729,0.759
			C159.436,1.423,160.082,2.086,160.708,2.762z"/>
		<path fill="#1F1D20" d="M0.055,11.126c0.719-0.957,1.455-1.904,2.21-2.841c0.268-0.331,0.55-0.654,0.821-0.982
			c0.516-0.624,1.026-1.249,1.56-1.863C4.98,5.054,5.331,4.678,5.671,4.296C6.159,3.75,6.641,3.199,7.142,2.66
			c0.367-0.395,0.751-0.779,1.125-1.169c0.478-0.497,0.946-1,1.435-1.49h-9.7v11.193c0.001,0,0.002-0.001,0.002-0.002
			C0.019,11.17,0.038,11.149,0.055,11.126z"/>
		<path fill="#1F1D20" d="M166.729,138.057c-0.33,0.426-0.655,0.854-0.992,1.274c-0.485,0.606-0.986,1.203-1.486,1.8
			c-0.329,0.393-0.648,0.788-0.984,1.176c-0.562,0.651-1.144,1.293-1.724,1.934c-0.292,0.322-0.573,0.65-0.872,0.969
			c-0.886,0.955-1.792,1.896-2.72,2.826c-0.265,0.264-0.528,0.525-0.795,0.786h11.224v-12.927c-0.097,0.133-0.201,0.262-0.3,0.394
			C167.639,136.883,167.184,137.469,166.729,138.057z"/>
		<path fill="#37041E" d="M168.077,11.638c-0.429-0.577-0.87-1.146-1.312-1.717C167.207,10.491,167.648,11.06,168.077,11.638z"/>
		<path fill="#37041E" d="M160.708,2.762c-0.626-0.676-1.272-1.339-1.922-2.002C159.436,1.423,160.082,2.086,160.708,2.762z"/>
		<path fill="#37041E" d="M165.745,8.609c-0.464-0.579-0.942-1.15-1.421-1.722C164.803,7.459,165.281,8.03,165.745,8.609z"/>
		<path fill="#37041E" d="M163.289,5.65c-0.516-0.598-1.05-1.186-1.581-1.775C162.239,4.464,162.773,5.052,163.289,5.65z"/>
		<path fill="#32001A" d="M157.95,148.035c0.928-0.93,1.834-1.872,2.72-2.826C159.784,146.163,158.878,147.105,157.95,148.035z"/>
		<path fill="#32001A" d="M166.729,138.057c0.453-0.588,0.91-1.174,1.351-1.768C167.639,136.883,167.184,137.469,166.729,138.057z"
			/>
		<path fill="#32001A" d="M164.25,141.131c0.5-0.597,1.001-1.193,1.486-1.8C165.251,139.938,164.75,140.534,164.25,141.131z"/>
		<path fill="#32001A" d="M161.542,144.24c0.58-0.641,1.162-1.281,1.724-1.934C162.704,142.958,162.122,143.6,161.542,144.24z"/>
		<path d="M5.671,4.296C5.33,4.678,4.98,5.054,4.646,5.44C4.979,5.054,5.33,4.678,5.671,4.296z"/>
		<path d="M8.267,1.491C7.893,1.881,7.509,2.265,7.142,2.66C7.509,2.266,7.893,1.881,8.267,1.491z"/>
		<path d="M3.086,7.303C2.815,7.631,2.532,7.954,2.265,8.285C2.532,7.954,2.814,7.631,3.086,7.303z"/>
		<path d="M0.055,11.126c-0.017,0.023-0.035,0.044-0.052,0.067C0.019,11.17,0.038,11.149,0.055,11.126z"/>
		<path d="M0.003,136.736c0.109,0.146,0.227,0.289,0.338,0.435C0.229,137.023,0.112,136.883,0.003,136.736z"/>
		<path d="M4.669,142.518c0.443,0.511,0.907,1.011,1.361,1.515C5.576,143.528,5.112,143.029,4.669,142.518z"/>
		<path fill="#211B16" d="M168.379,23.457V12.033c-0.098-0.133-0.203-0.263-0.302-0.396c-0.429-0.577-0.87-1.146-1.312-1.717
			c-0.34-0.438-0.675-0.878-1.021-1.312c-0.464-0.579-0.942-1.15-1.421-1.722c-0.346-0.413-0.684-0.829-1.035-1.237
			c-0.516-0.598-1.05-1.186-1.581-1.775c-0.334-0.371-0.659-0.746-1-1.113c-0.626-0.676-1.272-1.339-1.922-2.002
			c-0.245-0.251-0.479-0.509-0.729-0.759h-23.672v23.456L168.379,23.457L168.379,23.457z"/>
		<polygon fill="#272320" points="104.805,23.457 134.387,23.457 134.387,0.001 86.408,0.001 83.878,2.531 		"/>
		<polygon fill="#241F1B" points="134.387,53.039 155.311,73.964 168.379,60.897 168.379,23.457 134.387,23.457 		"/>
		<polygon fill="#2B2724" points="86.408,0.001 81.349,0.001 83.878,2.531 		"/>
		<polygon fill="#221C18" points="168.379,87.032 168.379,60.897 155.311,73.964 		"/>
		<polygon fill="#231D19" points="134.387,23.457 104.805,23.457 134.387,53.039 		"/>
		<polygon fill="#201A16" points="134.387,94.89 134.387,124.473 168.379,124.473 168.379,87.032 155.311,73.964 		"/>
		<polygon fill="#25201C" points="134.387,94.89 155.311,73.964 134.387,53.039 		"/>
		<polygon fill="#333130" points="119.596,109.682 134.387,94.89 134.387,53.039 104.805,23.457 104.801,23.457 62.957,23.457 
			62.954,23.457 48.163,38.248 		"/>
		<polygon fill="#353332" points="62.957,23.457 104.801,23.457 104.805,23.457 83.878,2.531 62.954,23.457 		"/>
		<polygon fill="#312F2D" points="62.954,23.457 83.878,2.531 81.349,0.001 33.372,0.001 33.372,23.457 		"/>
		<polygon fill="#2D2A27" points="33.372,0.001 9.917,0.001 33.372,23.457 		"/>
		<path fill="#1A140E" d="M168.379,124.473h-33.992l23.563,23.563c0.928-0.93,1.834-1.872,2.72-2.826
			c0.299-0.318,0.58-0.646,0.872-0.969c0.58-0.641,1.162-1.281,1.724-1.934c0.336-0.388,0.655-0.783,0.984-1.176
			c0.5-0.597,1.001-1.193,1.486-1.8c0.337-0.421,0.662-0.851,0.992-1.274c0.453-0.588,0.91-1.174,1.351-1.768
			c0.099-0.132,0.203-0.261,0.3-0.393V124.473L168.379,124.473z"/>
		<polygon fill="#241F1B" points="119.596,109.682 134.387,124.473 134.387,94.89 		"/>
		<polygon fill="#2C2826" points="62.954,23.457 33.372,23.457 48.163,38.248 		"/>
		<path d="M134.387,124.473v24.349h22.77c0.267-0.261,0.531-0.522,0.795-0.786L134.387,124.473z"/>
		<polygon fill="#1E1813" points="104.805,124.473 134.387,124.473 119.596,109.682 		"/>
		<polygon fill="#2C2826" points="48.163,38.248 33.372,53.039 33.372,94.89 62.954,124.473 104.805,124.473 119.596,109.682 		"/>
		<polygon fill="#201A15" points="33.372,23.457 33.372,53.039 48.163,38.248 		"/>
		<path d="M9.917,0.001H9.701c-0.488,0.49-0.957,0.993-1.435,1.49C7.892,1.881,7.508,2.265,7.141,2.66
			C6.64,3.199,6.159,3.749,5.67,4.296C5.329,4.678,4.979,5.054,4.645,5.44c-0.533,0.614-1.044,1.24-1.56,1.863
			C2.814,7.631,2.531,7.954,2.264,8.285c-0.755,0.937-1.491,1.884-2.21,2.841c-0.017,0.023-0.035,0.044-0.052,0.067
			c0,0-0.001,0.001-0.002,0.002v12.262h33.371L9.917,0.001z"/>
		<polygon points="33.372,53.039 33.372,23.457 0.001,23.457 0.001,61.519 12.446,73.964 		"/>
		<polygon points="104.805,124.473 83.878,145.396 87.302,148.821 134.387,148.821 134.387,124.473 		"/>
		<polygon fill="#221D19" points="33.372,53.039 12.446,73.964 33.372,94.89 		"/>
		<polygon points="62.954,124.473 83.878,145.396 104.805,124.473 		"/>
		<polygon points="80.455,148.821 87.302,148.821 83.878,145.396 		"/>
		<polygon points="62.954,124.473 33.372,124.473 33.372,148.821 80.455,148.821 83.878,145.396 		"/>
		<polygon points="33.372,124.473 62.954,124.473 33.372,94.89 		"/>
		<polygon points="33.372,94.89 12.446,73.964 0.001,86.409 0.001,124.473 33.372,124.473 		"/>
		<polygon points="0.001,61.519 0.001,86.409 12.446,73.964 		"/>
		<path d="M0.001,124.473v12.262c0.001,0,0.001,0,0.001,0c0.11,0.148,0.228,0.289,0.339,0.436c1.378,1.817,2.816,3.604,4.328,5.348
			c0.443,0.51,0.907,1.01,1.361,1.515c1.223,1.356,2.473,2.696,3.778,4.002c0.265,0.265,0.528,0.524,0.795,0.786h22.769v-24.35
			H0.001V124.473z"/>
	</g>
	<g>
		<path fill="#D44A94" d="M131.428,60.706l-13.705,13.705l13.705,13.706c1.262-4.35,1.938-8.948,1.938-13.706
			C133.365,69.654,132.689,65.056,131.428,60.706z"/>
		<path fill="#E27AAF" d="M107.902,64.592l9.818,9.819l13.705-13.705c-1.015-3.515-2.414-6.865-4.146-10.006h-19.378V64.592z"/>
		<path fill="#DF63A1" d="M107.902,84.231v13.892h19.378c1.731-3.142,3.132-6.492,4.146-10.006l-13.705-13.706L107.902,84.231z"/>
		<path fill="#E595C0" d="M127.28,50.7c-4.494-8.147-11.231-14.885-19.378-19.379V50.7H127.28z"/>
		<path fill="#D75399" d="M107.902,117.502c8.146-4.494,14.884-11.232,19.378-19.379h-19.378V117.502z"/>
		<polygon fill="#D65B9D" points="107.902,84.231 117.723,74.411 107.902,64.592 		"/>
		<path fill="#D44592" d="M94.01,98.123l-9.819,9.818l13.705,13.707c3.515-1.014,6.866-2.416,10.006-4.146V98.123H94.01z"/>
		<polygon fill="#EB5E9E" points="94.01,98.123 107.902,98.123 107.902,84.231 		"/>
		<polygon fill="#F8CAE0" points="94.01,50.7 84.19,50.7 84.19,98.123 94.01,98.123 107.902,84.231 107.902,64.592 		"/>
		<polygon fill="#F9D3E6" points="107.902,64.592 107.902,50.7 94.01,50.7 		"/>
		<path fill="#F7BFD9" d="M94.01,50.7h13.892V31.321c-3.141-1.732-6.491-3.132-10.006-4.146L84.191,40.881L94.01,50.7z"/>
		<path fill="#EDA2C7" d="M97.895,27.175c-4.35-1.262-8.948-1.938-13.705-1.938V40.88L97.895,27.175z"/>
		<path fill="#BE2585" d="M84.19,123.586c4.757,0,9.355-0.676,13.705-1.938L84.19,107.941V123.586z"/>
		<polygon fill="#E45B9C" points="84.19,107.941 94.01,98.123 84.19,98.123 		"/>
		<polygon fill="#F098C0" points="94.01,50.7 84.19,40.88 84.19,50.7 		"/>
		<path fill="#7B156C" d="M70.485,121.648c4.35,1.262,8.947,1.938,13.705,1.938v-15.645L70.485,121.648z"/>
		<polygon fill="#CA3B8E" points="74.371,98.123 84.19,107.941 84.19,98.123 		"/>
		<polygon fill="#E69BC3" points="84.19,50.7 74.371,50.7 60.478,64.592 60.478,84.231 74.371,98.123 84.19,98.123 		"/>
		<polygon fill="#D63C8E" points="84.19,40.88 74.371,50.7 84.19,50.7 		"/>
		<path fill="#C56094" d="M84.19,25.237c-4.758,0-9.355,0.675-13.705,1.938L84.19,40.881V25.237z"/>
		<path fill="#B94586" d="M74.371,50.7l9.819-9.82L70.485,27.174c-3.515,1.015-6.865,2.415-10.007,4.146v19.379L74.371,50.7
			L74.371,50.7z"/>
		<path fill="#9D0F72" d="M74.371,98.123H60.478v19.379c3.142,1.73,6.492,3.133,10.007,4.146l13.705-13.707L74.371,98.123z"/>
		<polygon fill="#CF5C9E" points="74.371,50.7 60.478,50.7 60.478,64.592 		"/>
		<polygon fill="#AC0672" points="60.478,84.231 60.478,98.123 74.371,98.123 		"/>
		<path fill="#A90872" d="M41.101,98.123c4.494,8.146,11.23,14.885,19.378,19.379V98.123H41.101z"/>
		<path fill="#B40472" d="M60.478,84.231l-9.819-9.82L36.954,88.117c1.015,3.515,2.414,6.865,4.146,10.006h19.378V84.231z"/>
		<polygon fill="#AC0672" points="50.659,74.411 60.478,84.231 60.478,64.592 		"/>
		<path fill="#B92A7A" d="M60.478,64.592V50.7H41.1c-1.732,3.141-3.132,6.491-4.146,10.006l13.705,13.705L60.478,64.592z"/>
		<path fill="#BE357E" d="M60.478,31.321C52.331,35.815,45.594,42.552,41.1,50.7h19.378V31.321z"/>
		<path fill="#911372" d="M36.954,60.706c-1.263,4.35-1.938,8.948-1.938,13.705c0,4.758,0.675,9.355,1.938,13.706l13.705-13.706
			L36.954,60.706z"/>
	</g>
</g>
<g>
</g>
<g>
</g>
<g>
</g>
<g>
</g>
<g>
</g>
<g>
</g>
</svg>
