<?xml version="1.0" encoding="utf-8"?>
<!-- Generator: Adobe Illustrator 16.0.0, SVG Export Plug-In . SVG Version: 6.00 Build 0)  -->
<!DOCTYPE svg PUBLIC "-//W3C//DTD SVG 1.1//EN" "http://www.w3.org/Graphics/SVG/1.1/DTD/svg11.dtd">
<svg version="1.1" id="Layer_1" xmlns="http://www.w3.org/2000/svg" xmlns:xlink="http://www.w3.org/1999/xlink" x="0px" y="0px"
	 width="168.377px" height="148.818px" viewBox="0 0 168.377 148.818" enable-background="new 0 0 168.377 148.818"
	 xml:space="preserve">
<g>
	<g>
		<path fill="#1F1D20" d="M45.452,92.944c-0.289-0.613-0.563-1.231-0.822-1.854c0.259,0.621,0.531,1.236,0.819,1.847
			C45.45,92.939,45.451,92.942,45.452,92.944z"/>
		<path fill="#1F1D20" d="M45.76,93.557c-0.039-0.077-0.078-0.152-0.115-0.229c-0.062-0.125-0.129-0.248-0.188-0.374
			c-0.001-0.003-0.002-0.005-0.004-0.008C45.551,93.15,45.658,93.352,45.76,93.557z"/>
		<path fill="#1F1D20" d="M46.362,94.757c0.001,0.003,0.004,0.007,0.006,0.011c-0.213-0.398-0.408-0.804-0.606-1.208
			c0.041,0.084,0.084,0.169,0.125,0.253C46.044,94.127,46.196,94.445,46.362,94.757z"/>
		<path fill="#1F1D20" d="M148.643,101.398c1.932,0.8,3.84,1.59,5.695,2.358c-0.107-0.045-0.213-0.088-0.322-0.133
			C152.262,102.896,150.461,102.152,148.643,101.398z"/>
		<path fill="#1F1D20" d="M47.367,96.543c0.002,0.004,0.005,0.007,0.007,0.011c-0.211-0.354-0.407-0.716-0.606-1.075
			c0.033,0.061,0.065,0.119,0.101,0.179C47.033,95.953,47.193,96.251,47.367,96.543z"/>
		<path fill="#1F1D20" d="M52.996,103.996c0.307,0.327,0.607,0.656,0.928,0.975c-0.32-0.319-0.621-0.649-0.93-0.977
			C52.995,103.994,52.995,103.995,52.996,103.996z"/>
		<path fill="#1F1D20" d="M120,98.161c0.367-0.56,0.721-1.124,1.059-1.695c0.002-0.002,0.002-0.005,0.004-0.007
			C120.723,97.032,120.369,97.6,120,98.161z"/>
		<path fill="#1F1D20" d="M122.416,93.967c0.021-0.041,0.043-0.083,0.063-0.124c0.148-0.296,0.305-0.589,0.443-0.888
			c0.002-0.001,0.002-0.002,0.002-0.003C122.764,93.293,122.588,93.63,122.416,93.967z"/>
		<path fill="#1F1D20" d="M123.307,92.097c0.15-0.335,0.307-0.669,0.447-1.007c-0.145,0.35-0.307,0.694-0.461,1.04
			C123.297,92.119,123.303,92.108,123.307,92.097z"/>
		<path fill="#1F1D20" d="M122.928,92.949c-0.002,0.001-0.002,0.002-0.002,0.003c0.129-0.273,0.246-0.55,0.367-0.826
			c-0.004,0.012-0.01,0.023-0.016,0.035C123.16,92.424,123.051,92.689,122.928,92.949z"/>
		<path fill="#1F1D20" d="M122.041,94.716c-0.002,0.002-0.002,0.004-0.004,0.006c0.133-0.25,0.254-0.505,0.381-0.758
			c-0.021,0.045-0.045,0.091-0.066,0.137C122.246,94.305,122.148,94.513,122.041,94.716z"/>
		<path fill="#1F1D20" d="M121.066,96.451c-0.002,0.002-0.002,0.005-0.004,0.007c0.109-0.186,0.211-0.376,0.316-0.562
			c-0.059,0.102-0.113,0.204-0.174,0.306C121.158,96.285,121.115,96.369,121.066,96.451z"/>
		<path fill="#1F1D20" d="M121.379,95.896c0.055-0.097,0.109-0.193,0.164-0.291c0.162-0.293,0.334-0.582,0.49-0.878
			c0.002-0.002,0.004-0.004,0.004-0.006C121.828,95.118,121.6,95.507,121.379,95.896z"/>
		<path fill="#1F1D20" d="M46.766,95.476c-0.033-0.059-0.067-0.117-0.101-0.178c-0.096-0.173-0.198-0.344-0.291-0.519
			c-0.003-0.003-0.005-0.008-0.007-0.012C46.494,95.006,46.633,95.239,46.766,95.476z"/>
		<path fill="#1F1D20" d="M105.807,22.521c-1.082,2.61-2.18,5.26-3.297,7.958c0.176-0.424,0.348-0.839,0.521-1.261
			C103.971,26.952,104.893,24.724,105.807,22.521z"/>
		<path fill="#1F1D20" d="M114.934,0.48c-3.086,7.449-6.459,15.596-10.033,24.228C108.475,16.078,111.85,7.928,114.934,0.48z"/>
		<path fill="#1F1D20" d="M52.995,103.994c-0.001,0-0.002-0.001-0.003-0.002c-0.227-0.239-0.454-0.478-0.673-0.721h-0.003
			C52.538,103.515,52.768,103.753,52.995,103.994z"/>
		<path fill="#1F1D20" d="M168.381,148.818v-5.443c-1.814,1.815-3.627,3.628-5.443,5.443H168.381z"/>
		<path fill="#1F1D20" d="M144.027,99.486c-6.445-2.669-13.229-5.479-20.273-8.396C130.799,94.008,137.582,96.817,144.027,99.486z"
			/>
		<path fill="#1F1D20" d="M52.316,103.27L52.316,103.27c-0.256-0.284-0.5-0.577-0.747-0.868c0.006,0.006,0.01,0.012,0.015,0.018
			C51.827,102.704,52.066,102.99,52.316,103.27z"/>
		<path fill="#1F1D20" d="M47.838,97.298c-0.023-0.041-0.051-0.081-0.074-0.122c-0.127-0.204-0.261-0.404-0.383-0.609
			c-0.003-0.004-0.005-0.008-0.007-0.012C47.521,96.805,47.684,97.05,47.838,97.298z"/>
		<path fill="#1F1D20" d="M0.002,0v6.03C2.014,4.02,4.021,2.01,6.032,0H0.002z"/>
		<path fill="#1F1D20" d="M48.996,99.057c-0.018-0.024-0.035-0.051-0.055-0.077c-0.152-0.223-0.313-0.442-0.463-0.669
			c-0.002-0.003-0.006-0.006-0.008-0.01C48.641,98.557,48.821,98.805,48.996,99.057z"/>
		<path fill="#1F1D20" d="M48.465,98.292c0.004,0.003,0.006,0.006,0.008,0.01c-0.22-0.33-0.424-0.667-0.632-1.001
			c0.024,0.04,0.05,0.08,0.074,0.119C48.098,97.71,48.273,98.004,48.465,98.292z"/>
		<path fill="#1F1D20" d="M49.657,99.999c0.001,0.002,0.003,0.004,0.005,0.007c-0.23-0.313-0.447-0.633-0.667-0.951
			c0.017,0.025,0.034,0.051,0.051,0.075C49.248,99.419,49.446,99.712,49.657,99.999z"/>
		<path fill="#1F1D20" d="M50.239,100.758c-0.011-0.014-0.021-0.026-0.031-0.042c-0.18-0.234-0.366-0.466-0.541-0.704
			c-0.002-0.002-0.004-0.005-0.006-0.007C49.85,100.26,50.047,100.508,50.239,100.758z"/>
		<path fill="#1F1D20" d="M51.573,102.405c-0.007-0.006-0.011-0.013-0.017-0.019c-0.203-0.24-0.412-0.477-0.609-0.72
			c-0.001-0.001-0.003-0.003-0.004-0.004C51.146,101.914,51.363,102.158,51.573,102.405z"/>
		<path fill="#1F1D20" d="M50.939,101.659c0,0.001,0.002,0.003,0.005,0.004c-0.243-0.298-0.474-0.604-0.707-0.908
			c0.011,0.014,0.021,0.027,0.032,0.041C50.491,101.085,50.71,101.375,50.939,101.659z"/>
		<path fill="#1F1D20" d="M0.002,148.818h5.443c-1.814-1.814-3.629-3.628-5.443-5.443V148.818z"/>
		<path fill="#1F1D20" d="M168.381,6.03V0h-6.031c0.197,0.196,0.393,0.392,0.59,0.588C164.752,2.402,166.566,4.216,168.381,6.03z"/>
		<path fill="#1F1D20" d="M154.016,103.624c0.109,0.045,0.215,0.088,0.322,0.133c0.039,0.017,0.08,0.033,0.119,0.049
			c-7.867-3.259-16.43-6.806-25.461-10.545C137.859,96.931,146.271,100.415,154.016,103.624z"/>
		<path fill="#2B3439" d="M162.35,0L162.35,0c0.195,0.196,0.393,0.392,0.59,0.588C162.742,0.392,162.547,0.196,162.35,0z"/>
		<path d="M23.717,4.006c0.088-0.228,0.178-0.449,0.268-0.676c0.074-0.191,0.15-0.378,0.226-0.568
			C24.044,3.177,23.88,3.586,23.717,4.006z"/>
		<path d="M22.176,7.989c-0.033,0.084-0.064,0.168-0.098,0.252c0.229-0.6,0.456-1.183,0.686-1.775
			C22.566,6.976,22.37,7.475,22.176,7.989z"/>
		<path d="M25.27,0.086C25.281,0.058,25.291,0.028,25.303,0c-0.012,0.029-0.022,0.059-0.035,0.087
			C25.27,0.087,25.27,0.086,25.27,0.086z"/>
		<path d="M6.032,0c-2.011,2.01-4.021,4.02-6.03,6.03v0.001C2.014,4.02,4.021,2.011,6.032,0L6.032,0z"/>
		<path d="M12.012,37.25c0.168-0.536,0.334-1.077,0.502-1.611C12.346,36.173,12.18,36.713,12.012,37.25z"/>
		<path d="M13.319,33.127c0.17-0.532,0.341-1.068,0.513-1.598C13.66,32.059,13.49,32.595,13.319,33.127z"/>
		<path d="M20.887,11.398c-0.09,0.237-0.18,0.478-0.269,0.717c-0.198,0.528-0.396,1.067-0.59,1.602
			C20.313,12.942,20.6,12.164,20.887,11.398z"/>
		<path d="M14.629,29.12c0.184-0.551,0.364-1.105,0.549-1.652C14.993,28.015,14.811,28.569,14.629,29.12z"/>
		<path d="M18.643,17.521c0.231-0.646,0.463-1.295,0.696-1.936C19.104,16.226,18.874,16.875,18.643,17.521z"/>
		<path d="M17.28,21.352c0.219-0.624,0.437-1.25,0.655-1.869C17.717,20.101,17.499,20.728,17.28,21.352z"/>
		<path d="M15.947,25.203c0.199-0.585,0.398-1.174,0.6-1.755C16.346,24.029,16.146,24.618,15.947,25.203z"/>
		<path d="M9.969,43.96c0.413-1.398,0.832-2.79,1.256-4.174C10.801,41.17,10.382,42.562,9.969,43.96z"/>
		<path d="M22.764,6.466c-0.229,0.593-0.457,1.176-0.686,1.775c0.366-0.961,0.732-1.903,1.102-2.849
			C23.04,5.75,22.9,6.108,22.764,6.466z"/>
		<path d="M24.209,2.761c-0.074,0.19-0.15,0.377-0.227,0.568c0.43-1.089,0.857-2.175,1.287-3.244c0,0,0,0.001-0.002,0.001
			C24.915,0.969,24.561,1.866,24.209,2.761z"/>
		<path fill="#303639" d="M140.33,124.349c0.781-0.79,1.568-1.577,2.344-2.368C141.898,122.771,141.111,123.559,140.33,124.349z"/>
		<path fill="#303639" d="M146.01,118.545c0.664-0.686,1.334-1.368,1.994-2.055C147.344,117.177,146.674,117.86,146.01,118.545z"/>
		<path fill="#303639" d="M151.879,112.421c0.457-0.481,0.922-0.963,1.377-1.446C152.801,111.458,152.336,111.939,151.879,112.421z"
			/>
		<path fill="#2C3439" d="M91.385,32.501c0.131,0.022,0.262,0.044,0.393,0.067c-0.439-0.079-0.877-0.163-1.318-0.229h0.002
			C90.77,32.386,91.076,32.448,91.385,32.501z"/>
		<path fill="#2C3439" d="M93.465,32.908c0.121,0.026,0.242,0.053,0.363,0.081c-0.438-0.101-0.869-0.205-1.307-0.292l0.004,0.001
			C92.84,32.76,93.152,32.838,93.465,32.908z"/>
		<path fill="#2C3439" d="M100.578,35.141c-0.652-0.271-1.313-0.525-1.975-0.764l0,0C99.266,34.616,99.926,34.87,100.578,35.141z"/>
		<path fill="#2C3439" d="M97.881,34.139c0.066,0.023,0.135,0.044,0.203,0.067c-0.494-0.169-0.988-0.339-1.486-0.491h0.004
			C97.029,33.846,97.455,33.995,97.881,34.139z"/>
		<path fill="#2C3439" d="M89.283,32.196c0.105,0.013,0.213,0.025,0.32,0.039c-0.406-0.053-0.813-0.109-1.223-0.149h0.004
			C88.684,32.115,88.984,32.16,89.283,32.196z"/>
		<path fill="#2C3439" d="M95.604,33.44c0.129,0.035,0.26,0.07,0.391,0.107c-0.473-0.136-0.947-0.272-1.422-0.393h0.002
			C94.918,33.243,95.26,33.346,95.604,33.44z"/>
		<path fill="#2C3439" d="M87.219,32c0.055,0.004,0.109,0.008,0.162,0.012c-0.359-0.025-0.721-0.061-1.082-0.079h0.002
			C86.607,31.947,86.912,31.978,87.219,32z"/>
		<path fill="#2C3439" d="M85.205,31.905c-0.326-0.009-0.653-0.024-0.98-0.024c0.313,0,0.625,0.016,0.938,0.023
			C85.178,31.904,85.191,31.905,85.205,31.905z"/>
		<path fill="#082B38" d="M11.225,39.786c-0.424,1.385-0.843,2.775-1.256,4.174c0.416-1.406,0.836-2.805,1.264-4.198
			C11.229,39.77,11.225,39.778,11.225,39.786z"/>
		<path fill="#082B38" d="M17.936,19.482c-0.219,0.618-0.438,1.245-0.655,1.869c-0.019,0.051-0.035,0.101-0.054,0.15
			c0.238-0.68,0.476-1.362,0.715-2.036C17.939,19.471,17.938,19.477,17.936,19.482z"/>
		<path fill="#082B38" d="M20.02,13.739c0.289-0.782,0.576-1.568,0.865-2.341c-0.287,0.766-0.572,1.544-0.856,2.318
			C20.023,13.724,20.021,13.73,20.02,13.739z"/>
		<path fill="#082B38" d="M19.339,15.585c-0.233,0.641-0.465,1.29-0.696,1.936c-0.01,0.022-0.018,0.045-0.024,0.066
			c0.241-0.671,0.481-1.345,0.726-2.01C19.342,15.58,19.342,15.583,19.339,15.585z"/>
		<path fill="#082B38" d="M15.178,27.467c-0.185,0.547-0.365,1.103-0.549,1.652c-0.054,0.164-0.107,0.328-0.162,0.492
			c0.241-0.73,0.481-1.462,0.725-2.188C15.186,27.439,15.182,27.453,15.178,27.467z"/>
		<path fill="#082B38" d="M13.832,31.529c-0.172,0.529-0.343,1.065-0.513,1.598c-0.078,0.242-0.156,0.484-0.234,0.727
			c0.254-0.792,0.507-1.585,0.763-2.371C13.844,31.499,13.837,31.514,13.832,31.529z"/>
		<path fill="#082B38" d="M12.514,35.639c-0.168,0.534-0.334,1.075-0.502,1.611c-0.097,0.312-0.193,0.624-0.291,0.937
			c0.269-0.864,0.534-1.73,0.808-2.591C12.521,35.61,12.518,35.624,12.514,35.639z"/>
		<path fill="#082B38" d="M16.547,23.447c-0.201,0.582-0.398,1.17-0.6,1.755c-0.033,0.099-0.067,0.197-0.102,0.296
			c0.236-0.694,0.473-1.393,0.711-2.081C16.555,23.428,16.551,23.438,16.547,23.447z"/>
		<path fill="#363839" d="M117.387,101.726c0.184-0.224,0.354-0.455,0.529-0.681C117.738,101.271,117.568,101.501,117.387,101.726z"
			/>
		<path fill="#363839" d="M118.705,100.02c0.178-0.242,0.344-0.49,0.518-0.735C119.049,99.529,118.883,99.777,118.705,100.02z"/>
		<path fill="#363839" d="M115.973,103.377c0.168-0.188,0.326-0.383,0.49-0.573C116.299,102.995,116.141,103.189,115.973,103.377z"
			/>
		<path fill="#2D363A" d="M86.301,31.932h-0.002c-0.363-0.018-0.729-0.019-1.094-0.026c-0.014,0-0.027-0.001-0.043-0.001
			C85.541,31.912,85.922,31.914,86.301,31.932z"/>
		<path fill="#2D363A" d="M94.574,33.156h-0.002c-0.248-0.063-0.496-0.109-0.744-0.167c-0.121-0.028-0.242-0.055-0.363-0.081
			C93.836,32.99,94.205,33.064,94.574,33.156z"/>
		<path fill="#2D363A" d="M88.385,32.086h-0.002c-0.334-0.033-0.668-0.049-1.002-0.074c-0.053-0.004-0.107-0.008-0.162-0.012
			C87.607,32.027,87.996,32.048,88.385,32.086z"/>
		<path fill="#2D363A" d="M90.461,32.341h-0.004c-0.283-0.042-0.568-0.069-0.854-0.104c-0.107-0.014-0.213-0.026-0.32-0.039
			C89.676,32.243,90.07,32.283,90.461,32.341z"/>
		<path fill="#2D363A" d="M96.6,33.716h-0.002c-0.199-0.061-0.402-0.108-0.604-0.167c-0.129-0.037-0.26-0.072-0.391-0.107
			C95.934,33.533,96.27,33.616,96.6,33.716z"/>
		<path fill="#2D363A" d="M98.604,34.378L98.604,34.378c-0.174-0.062-0.348-0.112-0.521-0.172c-0.066-0.023-0.135-0.044-0.203-0.067
			C98.121,34.22,98.363,34.292,98.604,34.378z"/>
		<path fill="#2D363A" d="M92.525,32.698l-0.004-0.001c-0.246-0.049-0.496-0.084-0.744-0.129c-0.131-0.023-0.264-0.045-0.395-0.067
			C91.766,32.565,92.146,32.623,92.525,32.698z"/>
		<path fill="#2D363A" d="M96.656,33.735c-4.045-1.232-8.236-1.852-12.434-1.854C88.418,31.884,92.611,32.503,96.656,33.735z"/>
		<path fill="#261E19" d="M47.915,97.419c-0.024-0.04-0.05-0.08-0.073-0.119c-0.027-0.042-0.054-0.083-0.078-0.124
			c0.023,0.041,0.051,0.081,0.074,0.122C47.863,97.338,47.891,97.379,47.915,97.419z"/>
		<polygon fill="#261E19" points="47.374,96.555 47.381,96.566 47.374,96.554 47.367,96.543 		"/>
		<ellipse fill="#261E19" cx="49.662" cy="100.005" rx="0" ry="0.009"/>
		<polygon fill="#261E19" points="48.473,98.302 48.479,98.312 48.473,98.301 48.465,98.292 		"/>
		<path fill="#261E19" d="M49.046,99.129c-0.017-0.025-0.034-0.05-0.051-0.075c-0.019-0.023-0.035-0.049-0.054-0.073
			c0.02,0.025,0.037,0.051,0.055,0.076S49.03,99.105,49.046,99.129z"/>
		<path fill="#261E19" d="M46.867,95.657c-0.034-0.06-0.066-0.119-0.102-0.179c-0.033-0.061-0.067-0.12-0.102-0.181
			c0.032,0.061,0.066,0.119,0.1,0.178C46.798,95.536,46.833,95.597,46.867,95.657z"/>
		<polygon fill="#261E19" points="45.452,92.945 45.456,92.953 45.452,92.944 45.449,92.937 		"/>
		<path fill="#261E19" d="M45.887,93.812c-0.041-0.084-0.084-0.168-0.125-0.253c-0.039-0.078-0.08-0.154-0.117-0.232
			c0.037,0.077,0.076,0.154,0.115,0.229C45.801,93.642,45.846,93.727,45.887,93.812z"/>
		<polygon fill="#261E19" points="46.367,94.768 46.374,94.779 46.368,94.768 46.362,94.757 		"/>
		<rect x="52.993" y="103.992" fill="#261E19" width="0.003" height="0.003"/>
		<rect x="52.316" y="103.27" fill="#261E19" width="0.003" height="0.001"/>
		<ellipse fill="#261E19" cx="50.944" cy="101.663" rx="0" ry="0.006"/>
		<path fill="#261E19" d="M51.584,102.418c-0.005-0.006-0.009-0.012-0.015-0.018c-0.005-0.006-0.009-0.01-0.013-0.015
			c0.006,0.006,0.01,0.013,0.017,0.019C51.577,102.41,51.58,102.414,51.584,102.418z"/>
		<path fill="#261E19" d="M50.27,100.796c-0.012-0.014-0.021-0.027-0.032-0.041c-0.011-0.013-0.021-0.025-0.029-0.039
			c0.011,0.014,0.021,0.028,0.031,0.042C50.249,100.771,50.26,100.784,50.27,100.796z"/>
		<path fill="#261E19" d="M116.809,47.003c2.951,3.466,5.271,7.286,6.943,11.313C122.08,54.288,119.762,50.47,116.809,47.003z"/>
		<path fill="#261E19" d="M53.924,44.435c2.391-2.389,4.996-4.43,7.749-6.137C58.92,40.005,56.314,42.045,53.924,44.435z"/>
		<path fill="none" d="M154.016,103.624c0.109,0.045,0.215,0.088,0.322,0.133L154.016,103.624z"/>
		<path fill="#261E19" d="M128.996,93.261c-1.732-0.717-3.477-1.439-5.242-2.171c7.045,2.918,13.828,5.728,20.273,8.396
			c1.559,0.646,3.098,1.282,4.613,1.912c1.82,0.754,3.619,1.5,5.375,2.226C146.271,100.415,137.859,96.931,128.996,93.261z"/>
		<path fill="#261E19" d="M123.277,92.162c0.006-0.012,0.012-0.023,0.016-0.035c0.006-0.01,0.01-0.02,0.014-0.029
			c-0.004,0.012-0.01,0.022-0.014,0.033C123.287,92.143,123.283,92.151,123.277,92.162z"/>
		<circle fill="#261E19" cx="122.926" cy="92.952" r="0"/>
		<polygon fill="#261E19" points="121.063,96.459 121.059,96.465 121.063,96.459 121.066,96.451 		"/>
		<path fill="#261E19" d="M121.207,96.202c0.059-0.103,0.113-0.205,0.172-0.307c0.055-0.097,0.109-0.193,0.164-0.291
			c-0.055,0.098-0.109,0.195-0.164,0.292C121.32,95.998,121.266,96.101,121.207,96.202z"/>
		<ellipse fill="#261E19" cx="122.037" cy="94.722" rx="0" ry="0.007"/>
		<path fill="#261E19" d="M122.35,94.101c0.023-0.045,0.047-0.091,0.068-0.137c0.021-0.04,0.041-0.081,0.063-0.121
			c-0.021,0.042-0.043,0.083-0.063,0.124C122.395,94.012,122.373,94.057,122.35,94.101z"/>
		<path fill="#261E19" d="M104.9,24.708c3.574-8.632,6.947-16.778,10.035-24.227c-2.824,6.814-5.893,14.22-9.131,22.04
			c-0.912,2.203-1.836,4.432-2.773,6.697C103.66,27.701,104.283,26.197,104.9,24.708z"/>
		<path fill="#261E19" d="M70.925,115.413c4.293,1.399,8.764,2.107,13.234,2.112C79.688,117.521,75.218,116.813,70.925,115.413z"/>
		<path fill="#261E19" d="M20.887,138.008c10.076,3.778,20.93,7.474,32.199,10.811C41.816,145.48,30.963,141.786,20.887,138.008z"/>
		<path fill="#261E19" d="M123.154,146.414c8.461-2.671,16.629-5.514,24.342-8.406C139.783,140.899,131.615,143.743,123.154,146.414
			z"/>
		<path fill="#261E19" d="M52.381,0.797C41.364,4.079,30.753,7.698,20.887,11.398C30.753,7.7,41.364,4.08,52.381,0.797z"/>
		<path fill="#261E19" d="M20.887,138.008c-7.402-2.764-14.324-5.562-20.885-8.311l0,0C6.561,132.446,13.482,135.246,20.887,138.008
			z"/>
		<path fill="#2F2C2A" d="M168.381,129.698c-6.559,2.748-13.48,5.547-20.885,8.31c-1.389,3.72-2.785,7.318-4.182,10.811h19.623
			c1.814-1.815,3.629-3.628,5.443-5.443V129.698L168.381,129.698z"/>
		<path fill="#363534" d="M147.496,11.398c7.404,2.763,14.326,5.562,20.885,8.31V6.03c-1.813-1.814-3.629-3.628-5.441-5.442
			c-0.197-0.196-0.395-0.392-0.588-0.588h-3.457C155.777,3.118,151.926,6.97,147.496,11.398z"/>
		<path fill="#25201D" d="M20.887,138.008c-4.154,4.153-7.802,7.801-10.811,10.811h14.99
			C23.672,145.326,22.273,141.728,20.887,138.008z"/>
		<path d="M20.887,138.008c-7.402-2.763-14.324-5.562-20.885-8.311v13.678c1.814,1.814,3.629,3.628,5.443,5.443h4.631
			C13.085,145.809,16.732,142.162,20.887,138.008z"/>
		<path d="M11.587,14.978c2.013-0.797,4.06-1.594,6.144-2.389c1.043-0.397,2.096-0.795,3.156-1.19
			c0.396-1.063,0.793-2.114,1.191-3.157c0.032-0.084,0.063-0.168,0.098-0.252c0.379-0.993,0.758-1.969,1.139-2.944
			c0.131-0.337,0.262-0.681,0.393-1.016C24.239,2.671,24.771,1.327,25.305,0H6.034c-2.011,2.011-4.021,4.02-6.03,6.031v13.678
			c0.913-0.383,1.835-0.767,2.764-1.152C5.632,17.369,8.569,16.174,11.587,14.978z"/>
		<path fill="#333230" d="M158.414,105.446c-3.365,11.398-7.1,22.376-10.918,32.562c7.402-2.763,14.326-5.562,20.885-8.31v-20.124
			C165.215,108.263,161.896,106.889,158.414,105.446z"/>
		<path fill="none" d="M168.381,129.698c-6.559,2.748-13.48,5.547-20.885,8.31L168.381,129.698z"/>
		<path fill="#292522" d="M20.887,138.008c1.389,3.72,2.785,7.318,4.182,10.811l0,0h28.019
			C41.816,145.48,30.963,141.787,20.887,138.008z"/>
		<path d="M115.133,0h-1.012c0.271,0.16,0.543,0.32,0.813,0.48C115.002,0.32,115.068,0.16,115.133,0z"/>
		<path d="M9.969,43.96c-0.861-0.356-1.714-0.71-2.556-1.059c-2.562-1.061-5.031-2.083-7.411-3.069v21.693
			C3.166,55.682,6.512,49.799,9.969,43.96z"/>
		<path d="M7.413,42.901c0.842,0.349,1.692,0.702,2.556,1.059c0.42-1.418,0.844-2.83,1.273-4.234
			c0.051-0.166,0.104-0.329,0.152-0.495c0.381-1.235,0.763-2.468,1.149-3.692c0.077-0.244,0.155-0.483,0.233-0.727
			c0.361-1.136,0.724-2.27,1.09-3.395c0.117-0.358,0.236-0.712,0.354-1.069c0.33-0.998,0.658-1.996,0.99-2.983
			c0.155-0.463,0.313-0.92,0.471-1.381c0.297-0.874,0.592-1.749,0.892-2.614c0.187-0.535,0.373-1.063,0.559-1.596
			c0.273-0.78,0.546-1.563,0.82-2.336c0.206-0.579,0.414-1.15,0.621-1.727c0.258-0.717,0.515-1.438,0.774-2.147
			c0.219-0.602,0.438-1.194,0.659-1.792c0.203-0.551,0.406-1.108,0.61-1.655c0.089-0.24,0.179-0.479,0.268-0.718
			c-1.061,0.396-2.113,0.794-3.154,1.191c-2.086,0.795-4.133,1.592-6.145,2.389c-3.018,1.196-5.955,2.392-8.822,3.579
			c-0.928,0.386-1.85,0.77-2.763,1.152v20.123C2.382,40.817,4.852,41.841,7.413,42.901z"/>
		<path fill="none" d="M0.002,19.709c0.913-0.383,1.835-0.767,2.764-1.152L0.002,19.709z"/>
		<path fill="none" d="M7.413,42.901c-2.562-1.061-5.031-2.083-7.411-3.069L7.413,42.901z"/>
		<path fill="#312F2D" d="M147.496,138.008c-7.713,2.893-15.881,5.734-24.342,8.406c-2.592,0.819-5.213,1.622-7.857,2.404h28.02
			C144.711,145.327,146.107,141.728,147.496,138.008z"/>
		<path fill="#373534" d="M147.496,11.398c2.146,5.721,4.26,11.698,6.301,17.854c0.73,2.195,1.449,4.41,2.154,6.649
			c0.84,2.659,1.662,5.345,2.463,8.058c3.48-1.441,6.803-2.818,9.967-4.128V19.708C161.822,16.96,154.9,14.161,147.496,11.398z"/>
		<path d="M20.887,138.008c-0.09-0.239-0.18-0.478-0.269-0.718c-0.201-0.538-0.399-1.087-0.603-1.629
			c-0.224-0.609-0.449-1.214-0.672-1.829c-0.25-0.683-0.498-1.375-0.746-2.064c-0.218-0.604-0.436-1.206-0.651-1.814
			c-0.252-0.712-0.505-1.434-0.755-2.152c-0.211-0.598-0.42-1.192-0.629-1.795c-0.26-0.749-0.516-1.506-0.771-2.26
			c-0.198-0.582-0.397-1.16-0.595-1.745c-0.271-0.81-0.54-1.628-0.811-2.444c-0.178-0.538-0.356-1.07-0.533-1.611
			c-0.287-0.879-0.568-1.767-0.853-2.652c-0.157-0.49-0.315-0.976-0.472-1.468c-0.313-0.987-0.618-1.982-0.926-2.978
			c-0.123-0.396-0.248-0.791-0.369-1.188c-0.428-1.397-0.85-2.801-1.268-4.212c-3.479,1.441-6.803,2.817-9.967,4.128v20.124
			C6.561,132.446,13.482,135.245,20.887,138.008z"/>
		<path d="M54.262,0h-1.013c0.065,0.16,0.133,0.32,0.199,0.48C53.721,0.32,53.989,0.16,54.262,0z"/>
		<path d="M9.969,105.446c-3.457-5.839-6.803-11.723-9.967-17.564v21.692C3.166,108.264,6.489,106.888,9.969,105.446z"/>
		<path d="M23.706,4.029c-0.131,0.334-0.262,0.679-0.394,1.016c-0.379,0.976-0.76,1.951-1.139,2.944
			c0.195-0.515,0.393-1.014,0.59-1.522c0.137-0.357,0.275-0.717,0.414-1.073c-0.367,0.945-0.734,1.888-1.101,2.849
			c-0.397,1.043-0.795,2.094-1.192,3.157c9.867-3.7,20.479-7.318,31.495-10.602c0.354-0.105,0.712-0.212,1.067-0.317
			c-0.066-0.16-0.133-0.32-0.199-0.479H25.303c-0.012,0.028-0.021,0.058-0.033,0.086c-0.43,1.069-0.857,2.154-1.287,3.244
			c-0.088,0.227-0.178,0.448-0.268,0.676c0.164-0.419,0.328-0.829,0.493-1.245c0.353-0.896,0.706-1.792,1.06-2.674
			c0.013-0.029,0.023-0.059,0.035-0.087l0,0C24.771,1.327,24.238,2.67,23.706,4.029z"/>
		<path fill="#353332" d="M123.154,146.414c8.461-2.671,16.629-5.516,24.342-8.406c3.818-10.187,7.553-21.163,10.918-32.562
			c-1.701,1.842-3.422,3.687-5.158,5.529c-0.455,0.482-0.92,0.964-1.377,1.446c-1.285,1.357-2.572,2.715-3.875,4.069
			c-0.66,0.687-1.33,1.369-1.994,2.055c-1.109,1.146-2.217,2.292-3.336,3.435c-0.775,0.792-1.563,1.579-2.344,2.369
			c-0.963,0.975-1.92,1.95-2.889,2.919c-0.113,0.114-0.229,0.229-0.344,0.344c-7.266,7.268-14.674,14.394-22.049,21.208h0.248
			C117.941,148.036,120.563,147.233,123.154,146.414z"/>
		<path fill="none" d="M147.496,138.008c3.818-10.187,7.553-21.163,10.918-32.562L147.496,138.008z"/>
		<path fill="#363433" d="M158.414,43.96c0.734,9.944,1.102,20.344,1.102,30.743c0,2.601-0.021,5.2-0.068,7.792
			c-0.139,7.778-0.48,15.493-1.031,22.951c3.48,1.442,6.801,2.816,9.967,4.128V39.831C165.217,41.142,161.895,42.519,158.414,43.96z
			"/>
		<path fill="#383635" d="M137.1,127.611c0.113-0.114,0.229-0.229,0.342-0.344c0.969-0.969,1.928-1.944,2.889-2.919
			c0.781-0.79,1.568-1.577,2.346-2.369c1.119-1.142,2.227-2.288,3.334-3.435c0.664-0.686,1.334-1.368,1.994-2.055
			c1.303-1.354,2.59-2.712,3.877-4.069c0.455-0.481,0.92-0.964,1.375-1.446c1.738-1.843,3.459-3.688,5.16-5.529
			c-1.299-0.538-2.619-1.084-3.959-1.64c-0.039-0.016-0.08-0.032-0.117-0.049c-1.857-0.77-3.766-1.56-5.697-2.358
			c-1.518-0.629-3.057-1.267-4.613-1.912c-6.445-2.669-13.229-5.479-20.273-8.396c-0.141,0.338-0.297,0.672-0.447,1.007
			c-0.004,0.011-0.008,0.021-0.014,0.029c-0.121,0.275-0.238,0.553-0.367,0.826c0,0.001-0.002,0.002-0.002,0.003
			c-0.141,0.298-0.295,0.592-0.443,0.888c-0.021,0.04-0.041,0.081-0.063,0.121c-0.127,0.252-0.248,0.508-0.381,0.758
			c0,0.002-0.002,0.004-0.004,0.006c-0.156,0.295-0.328,0.585-0.49,0.877c-0.055,0.098-0.109,0.194-0.164,0.291
			c-0.105,0.188-0.205,0.376-0.316,0.563c0,0.002-0.002,0.004-0.004,0.007c-0.338,0.571-0.691,1.137-1.059,1.695
			c-0.049,0.075-0.098,0.149-0.148,0.226c-0.201,0.304-0.42,0.599-0.629,0.897c-0.174,0.245-0.34,0.493-0.518,0.735
			c-0.254,0.347-0.523,0.685-0.789,1.025c-0.178,0.228-0.348,0.457-0.529,0.681c-0.297,0.365-0.611,0.722-0.924,1.079
			c-0.164,0.19-0.322,0.386-0.49,0.573c-0.488,0.541-0.992,1.072-1.514,1.593c-2.453,2.453-5.133,4.538-7.969,6.272
			c-1.904,1.165-3.877,2.176-5.904,3.019l-0.008,0.003c0.324,0.783,0.648,1.563,0.969,2.342c1.611,3.884,3.188,7.688,4.721,11.395
			c0.922,2.224,1.828,4.412,2.719,6.563c2.061,4.976,4.035,9.742,5.904,14.256h0.16C122.426,142.004,129.832,134.878,137.1,127.611z
			"/>
		<path fill="#353331" d="M108.986,134.562c-0.893-2.149-1.799-4.338-2.721-6.562c-1.533-3.706-3.107-7.51-4.719-11.396
			c-0.322-0.777-0.646-1.558-0.971-2.341c-0.055,0.023-0.109,0.046-0.166,0.069c-5.184,2.128-10.701,3.19-16.219,3.19l0,0
			c-0.013,0-0.021,0-0.033,0c-4.472-0.004-8.941-0.712-13.234-2.111c-0.735-0.24-1.469-0.495-2.194-0.776
			c-0.31-0.12-0.617-0.244-0.926-0.372c-0.324,0.783-0.646,1.564-0.97,2.341c-0.643,1.555-1.281,3.096-1.914,4.622
			c-4.094,9.885-7.943,19.179-11.428,27.592h61.396C113.021,144.305,111.045,139.538,108.986,134.562z"/>
		<path fill="none" d="M114.891,148.818c-1.869-4.515-3.846-9.28-5.904-14.256L114.891,148.818z"/>
		<path fill="#393837" d="M159.516,74.703c0-10.398-0.365-20.798-1.102-30.743c-10.389,4.304-22.125,9.165-34.66,14.356
			c2.172,5.229,3.26,10.806,3.26,16.383c0,4.182-0.609,8.364-1.832,12.4c-0.406,1.347-0.883,2.674-1.424,3.982l-0.004,0.007
			c1.766,0.731,3.51,1.454,5.242,2.171c9.031,3.739,17.594,7.286,25.461,10.545c1.34,0.556,2.658,1.103,3.957,1.64
			c0.551-7.458,0.895-15.173,1.033-22.951C159.492,79.903,159.516,77.303,159.516,74.703z"/>
		<path fill="none" d="M159.447,82.495c0.045-2.592,0.068-5.192,0.068-7.792L159.447,82.495z"/>
		<path fill="none" d="M159.447,82.495c-0.141,7.779-0.482,15.493-1.033,22.951L159.447,82.495z"/>
		<path fill="none" d="M153.797,29.253c0.73,2.195,1.449,4.41,2.154,6.649L153.797,29.253z"/>
		<path fill="#25201D" d="M42.244,138.363c-3.675-3.535-7.335-7.125-10.961-10.752c-3.725,3.725-7.21,7.21-10.396,10.396
			c10.076,3.777,20.932,7.472,32.199,10.811h0.246C49.639,145.405,45.934,141.912,42.244,138.363z"/>
		<path fill="#393837" d="M114.459,44.435c0.723,0.725,1.404,1.474,2.064,2.234c0.098,0.111,0.191,0.222,0.285,0.334
			c2.951,3.466,5.271,7.285,6.943,11.313c12.535-5.192,24.271-10.054,34.662-14.356c-0.99-1.071-1.998-2.143-3-3.214
			c0.893,0.956,1.795,1.912,2.678,2.867c-6.748-7.298-13.801-14.627-20.994-21.817c1.807,1.805,3.604,3.618,5.389,5.438
			c-1.785-1.819-3.582-3.634-5.389-5.438C130.24,28.654,122.57,36.325,114.459,44.435z M153.094,38.26
			c-0.941-0.999-1.9-1.996-2.852-2.994C151.193,36.264,152.15,37.261,153.094,38.26z M147.83,32.734
			c-0.908-0.943-1.83-1.884-2.744-2.825C146,30.851,146.922,31.791,147.83,32.734z"/>
		<path fill="#383736" d="M158.094,43.613c-0.885-0.956-1.785-1.912-2.68-2.867c1.002,1.072,2.012,2.144,3,3.214
			c-0.801-2.712-1.623-5.397-2.463-8.058c-0.705-2.239-1.424-4.454-2.154-6.649c-2.041-6.156-4.154-12.134-6.301-17.854
			c-3.188,3.188-6.672,6.673-10.396,10.396C144.293,28.985,151.346,36.314,158.094,43.613z"/>
		<path fill="#383736" d="M145.086,29.909c0.914,0.94,1.836,1.881,2.744,2.825C146.922,31.791,146,30.851,145.086,29.909z"/>
		<path fill="#383736" d="M137.1,21.795c1.807,1.804,3.602,3.618,5.387,5.438C140.701,25.413,138.904,23.6,137.1,21.795z"/>
		<path fill="#383736" d="M150.242,35.266c0.951,0.998,1.908,1.995,2.852,2.994C152.15,37.261,151.193,36.264,150.242,35.266z"/>
		<path fill="#343231" d="M64.921,121.228c0.633-1.526,1.271-3.067,1.914-4.622c0.322-0.776,0.646-1.558,0.97-2.341
			c-2.381-0.988-4.688-2.207-6.896-3.642c-0.612-0.398-1.219-0.814-1.815-1.247c-0.189-0.138-0.375-0.29-0.564-0.432
			c-0.402-0.302-0.805-0.601-1.199-0.917c-0.223-0.18-0.438-0.373-0.656-0.558c-0.352-0.295-0.707-0.586-1.051-0.895
			c-0.236-0.211-0.463-0.438-0.693-0.654c-0.303-0.283-0.607-0.557-0.902-0.85c-0.034-0.034-0.067-0.068-0.102-0.103
			c-8.111,8.111-15.781,15.781-22.642,22.641c3.626,3.627,7.286,7.217,10.961,10.752c3.69,3.549,7.394,7.042,11.088,10.456h0.161
			C56.977,140.406,60.827,131.112,64.921,121.228z"/>
		<path fill="#241F1B" d="M9.969,105.446c0.418,1.411,0.84,2.814,1.268,4.212c0.121,0.397,0.246,0.792,0.369,1.188
			c0.308,0.995,0.613,1.989,0.926,2.978c0.154,0.492,0.314,0.978,0.472,1.468c0.283,0.886,0.565,1.773,0.853,2.652
			c0.177,0.541,0.355,1.073,0.533,1.611c0.271,0.816,0.539,1.634,0.811,2.444c0.195,0.585,0.396,1.163,0.595,1.745
			c0.257,0.754,0.513,1.512,0.771,2.26c0.209,0.604,0.418,1.197,0.629,1.795c0.25,0.719,0.503,1.439,0.755,2.152
			c0.217,0.608,0.435,1.21,0.651,1.814c0.248,0.689,0.496,1.381,0.746,2.064c0.223,0.614,0.448,1.22,0.672,1.829
			c0.201,0.542,0.4,1.091,0.603,1.629c0.089,0.24,0.179,0.479,0.269,0.718c3.188-3.188,6.674-6.673,10.396-10.396
			c-3.697-3.697-7.357-7.432-10.96-11.18C16.809,112.776,13.35,109.107,9.969,105.446z"/>
		<path fill="#2E2A28" d="M52.995,103.994c-0.228-0.241-0.457-0.479-0.679-0.725l0,0c-0.25-0.279-0.489-0.565-0.732-0.852
			c-0.004-0.004-0.007-0.009-0.011-0.014c-0.21-0.247-0.427-0.491-0.63-0.742c-0.002-0.001-0.004-0.003-0.004-0.004
			c-0.229-0.284-0.448-0.574-0.67-0.862c-0.01-0.013-0.021-0.025-0.03-0.038c-0.192-0.25-0.392-0.499-0.578-0.753
			c-0.001-0.002-0.003-0.004-0.004-0.007c-0.211-0.287-0.409-0.579-0.611-0.87c-0.016-0.024-0.032-0.047-0.05-0.072
			c-0.175-0.252-0.355-0.5-0.523-0.755c-0.002-0.003-0.004-0.007-0.008-0.01c-0.189-0.288-0.367-0.581-0.55-0.872
			c-0.024-0.041-0.052-0.081-0.077-0.122c-0.154-0.248-0.314-0.493-0.464-0.743c-0.003-0.004-0.005-0.008-0.007-0.012
			c-0.174-0.292-0.334-0.59-0.5-0.886c-0.034-0.062-0.068-0.121-0.104-0.183c-0.131-0.235-0.271-0.469-0.396-0.708
			c-0.002-0.004-0.004-0.008-0.005-0.011c-0.166-0.312-0.318-0.629-0.476-0.945c-0.043-0.085-0.086-0.17-0.129-0.255
			c-0.101-0.205-0.209-0.406-0.307-0.611c-0.001-0.004-0.002-0.007-0.003-0.009c-0.288-0.609-0.562-1.226-0.819-1.847
			c-0.783,0.323-1.563,0.646-2.341,0.968c-11.655,4.828-22.581,9.354-32.319,13.389c3.379,3.66,6.84,7.329,10.354,10.985
			c3.604,3.748,7.263,7.482,10.96,11.18c6.858-6.859,14.53-14.529,22.642-22.641C53.604,104.65,53.303,104.321,52.995,103.994
			L52.995,103.994z"/>
		<path fill="none" d="M20.323,116.432c-3.515-3.655-6.976-7.324-10.354-10.985L20.323,116.432z"/>
		<path fill="#353332" d="M115.281,0.801c0.127,0.116,0.252,0.232,0.377,0.348c0.199,0.185,0.396,0.368,0.598,0.554
			c6.121,5.682,12.258,11.573,18.314,17.574c0.102,0.1,0.201,0.199,0.303,0.301c0.305,0.302,0.607,0.604,0.912,0.907
			c0.203,0.2,0.406,0.402,0.605,0.604c0.236,0.235,0.473,0.471,0.707,0.707c3.727-3.725,7.211-7.21,10.398-10.396
			c4.428-4.429,8.279-8.28,11.396-11.398h-43.762c-0.064,0.16-0.131,0.32-0.197,0.479C115.051,0.587,115.166,0.694,115.281,0.801z"
			/>
		<path fill="none" d="M134.873,19.577c-0.102-0.102-0.201-0.201-0.303-0.301L134.873,19.577z"/>
		<path fill="none" d="M135.785,20.484c-0.305-0.304-0.607-0.604-0.912-0.907L135.785,20.484z"/>
		<path fill="none" d="M136.393,21.088c-0.201-0.201-0.404-0.403-0.605-0.604L136.393,21.088z"/>
		<path fill="#363534" d="M53.448,0.48c4.303,10.389,9.164,22.127,14.355,34.661l0.003-0.001c0.313-0.129,0.625-0.255,0.939-0.377
			c0.042-0.016,0.085-0.033,0.127-0.049c0.02-0.007,0.039-0.015,0.058-0.021c0.008-0.002,0.014-0.005,0.019-0.007
			c0.103-0.039,0.205-0.077,0.308-0.115c0.251-0.095,0.506-0.176,0.758-0.265c0.308-0.107,0.613-0.219,0.923-0.319
			c0.297-0.098,0.597-0.184,0.896-0.273c0.319-0.096,0.638-0.197,0.958-0.285c0.29-0.081,0.582-0.148,0.873-0.223
			c0.333-0.085,0.667-0.174,1.002-0.25c0.277-0.063,0.559-0.116,0.837-0.174c0.352-0.072,0.7-0.149,1.052-0.213
			c0.266-0.049,0.531-0.085,0.797-0.129c0.367-0.059,0.734-0.122,1.104-0.172c0.248-0.033,0.496-0.056,0.744-0.085
			c0.389-0.045,0.774-0.094,1.162-0.129c0.236-0.021,0.475-0.032,0.711-0.049c0.399-0.029,0.801-0.062,1.201-0.08
			c0.221-0.01,0.441-0.009,0.664-0.016c0.403-0.013,0.808-0.028,1.212-0.028c0.015,0,0.027,0,0.044,0c0.011,0,0.021,0,0.03,0
			c0.328,0,0.655,0.017,0.981,0.024c0.365,0.009,0.729,0.01,1.094,0.026c0.361,0.019,0.723,0.054,1.082,0.079
			c0.334,0.025,0.668,0.042,1.002,0.074c0.408,0.04,0.814,0.098,1.221,0.149c0.285,0.035,0.57,0.063,0.854,0.104
			c0.441,0.065,0.881,0.148,1.32,0.229c0.248,0.045,0.498,0.079,0.744,0.129c0.438,0.087,0.869,0.191,1.307,0.292
			c0.248,0.058,0.496,0.104,0.744,0.167c0.475,0.118,0.949,0.257,1.422,0.393c0.201,0.058,0.404,0.106,0.604,0.167
			c0.498,0.151,0.992,0.321,1.484,0.491c0.174,0.06,0.348,0.109,0.52,0.171c0.664,0.238,1.322,0.492,1.977,0.764
			c0.648-1.565,1.293-3.121,1.932-4.662c1.117-2.698,2.215-5.348,3.297-7.958c3.238-7.82,6.305-15.225,9.129-22.041
			c-0.434-0.031-0.865-0.063-1.301-0.094c-2.057-0.145-4.133-0.272-6.223-0.387h-46.42c-0.145,0.007-0.287,0.015-0.43,0.022
			C58.171,0.156,55.796,0.307,53.448,0.48z"/>
		<path fill="#2F2C29" d="M44.63,91.09c-2.182-5.25-3.268-10.847-3.261-16.443c0.007-4.861,0.839-9.723,2.497-14.353
			c0.237-0.665,0.491-1.323,0.764-1.978c-0.782-0.325-1.563-0.647-2.341-0.97c-11.656-4.828-22.581-9.354-32.32-13.388
			c-0.173,2.347-0.324,4.722-0.457,7.115c-0.015,0.271-0.029,0.546-0.045,0.819c-0.117,2.21-0.218,4.435-0.3,6.672
			c-0.014,0.363-0.026,0.728-0.039,1.093c-0.174,5.012-0.26,10.075-0.26,15.139c0.002,10.368,0.369,20.734,1.101,30.648
			c9.739-4.034,20.664-8.561,32.32-13.389C43.064,91.737,43.848,91.413,44.63,91.09z"/>
		<path fill="none" d="M9.969,105.446c9.739-4.034,20.664-8.561,32.32-13.389L9.969,105.446z"/>
		<path fill="#343231" d="M44.63,58.316l0.003-0.005c1.432-3.447,3.338-6.743,5.709-9.796c0.338-0.436,0.687-0.866,1.043-1.293
			c0.045-0.054,0.092-0.106,0.137-0.162c0.763-0.896,1.557-1.777,2.402-2.626c2.391-2.39,4.996-4.43,7.749-6.137
			c0.088-0.055,0.178-0.109,0.267-0.164c1.894-1.155,3.854-2.156,5.865-2.993C62.613,22.607,57.751,10.869,53.449,0.48
			C46.037,7.325,38.59,14.488,31.284,21.794c-7.306,7.305-14.47,14.753-21.313,22.166c9.738,4.034,20.664,8.56,32.319,13.388
			C43.066,57.669,43.848,57.992,44.63,58.316z"/>
		<path fill="none" d="M53.448,0.48c4.303,10.389,9.164,22.127,14.355,34.661L53.448,0.48z"/>
		<path fill="#33312F" d="M60.563,0.023c0.143-0.009,0.285-0.017,0.43-0.023h-6.73c-0.271,0.16-0.541,0.32-0.813,0.48
			C55.796,0.307,58.171,0.156,60.563,0.023z"/>
		<path fill="none" d="M54.262,0c-0.271,0.16-0.541,0.32-0.813,0.48L54.262,0z"/>
		<path fill="#33312F" d="M113.635,0.387c0.436,0.031,0.867,0.063,1.301,0.094c-0.271-0.16-0.543-0.32-0.813-0.479h-6.711l0,0
			C109.502,0.113,111.578,0.242,113.635,0.387z"/>
		<path fill="none" d="M114.934,0.48c-0.432-0.031-0.865-0.063-1.301-0.094L114.934,0.48z"/>
		<path fill="none" d="M60.992,0c-0.145,0.007-0.287,0.015-0.43,0.023L60.992,0z"/>
		<path d="M9.969,105.446c-0.73-9.914-1.099-20.281-1.101-30.648c0-5.063,0.086-10.127,0.26-15.139
			c0.013-0.365,0.025-0.729,0.039-1.093c0.082-2.237,0.183-4.463,0.3-6.672c0.016-0.273,0.03-0.548,0.045-0.819
			c0.133-2.394,0.284-4.769,0.457-7.115c-3.457,5.839-6.803,11.722-9.967,17.565v26.355l0,0
			C3.166,93.724,6.512,99.607,9.969,105.446z"/>
		<path fill="none" d="M8.868,74.797c0-5.063,0.086-10.127,0.26-15.139L8.868,74.797z"/>
		<path fill="none" d="M8.868,74.797c0.002,10.368,0.369,20.734,1.101,30.648L8.868,74.797z"/>
		<path fill="none" d="M9.969,43.96c-0.173,2.347-0.324,4.722-0.457,7.115L9.969,43.96z"/>
		<path fill="none" d="M9.167,58.566c0.082-2.237,0.183-4.463,0.3-6.672L9.167,58.566z"/>
		<path fill="#312E2C" d="M53.448,0.48c-0.354,0.105-0.712,0.211-1.067,0.317C41.364,4.08,30.753,7.7,20.887,11.399
			c-0.289,0.772-0.578,1.559-0.867,2.341c0.004-0.007,0.006-0.016,0.01-0.022c0.195-0.533,0.392-1.072,0.59-1.602
			c-0.204,0.547-0.407,1.104-0.609,1.655c-0.222,0.598-0.441,1.19-0.66,1.793c-0.261,0.71-0.518,1.43-0.774,2.146
			c-0.207,0.576-0.415,1.147-0.621,1.727c-0.274,0.773-0.547,1.557-0.819,2.337c-0.187,0.531-0.373,1.06-0.56,1.595
			c-0.299,0.866-0.595,1.74-0.892,2.614c-0.156,0.461-0.314,0.918-0.471,1.381c-0.332,0.987-0.66,1.985-0.99,2.983
			c-0.117,0.357-0.235,0.711-0.354,1.069c-0.366,1.125-0.729,2.258-1.09,3.395c-0.078,0.243-0.156,0.482-0.233,0.727
			c-0.388,1.225-0.77,2.457-1.149,3.693c-0.051,0.165-0.103,0.328-0.152,0.494c-0.43,1.405-0.854,2.816-1.273,4.234
			c0.414-1.398,0.832-2.79,1.256-4.174c0.002-0.008,0.004-0.017,0.008-0.023c-0.428,1.394-0.848,2.792-1.264,4.198
			c6.846-7.413,14.01-14.86,21.314-22.166C38.588,14.489,46.036,7.326,53.448,0.48z M18.643,17.521
			c0.231-0.646,0.463-1.295,0.696-1.936c0.003-0.003,0.003-0.005,0.005-0.008c-0.244,0.665-0.484,1.338-0.727,2.01
			C18.625,17.565,18.633,17.543,18.643,17.521z M17.28,21.352c0.219-0.624,0.437-1.25,0.655-1.869
			c0.002-0.006,0.004-0.012,0.006-0.017c-0.239,0.674-0.477,1.356-0.715,2.036C17.245,21.452,17.264,21.401,17.28,21.352z
			 M15.947,25.203c0.199-0.585,0.398-1.174,0.6-1.755c0.004-0.011,0.008-0.021,0.012-0.03c-0.238,0.689-0.476,1.387-0.711,2.081
			C15.88,25.4,15.914,25.301,15.947,25.203z M14.629,29.12c0.184-0.551,0.364-1.105,0.549-1.652c0.004-0.014,0.01-0.028,0.014-0.042
			c-0.242,0.726-0.482,1.457-0.725,2.188C14.52,29.448,14.575,29.284,14.629,29.12z M13.319,33.127
			c0.171-0.533,0.341-1.068,0.513-1.598c0.005-0.017,0.012-0.031,0.016-0.046c-0.256,0.785-0.509,1.579-0.763,2.372
			C13.163,33.612,13.241,33.369,13.319,33.127z M12.012,37.25c0.168-0.536,0.334-1.077,0.502-1.611
			c0.004-0.015,0.01-0.028,0.015-0.043c-0.272,0.859-0.539,1.727-0.808,2.591C11.816,37.874,11.915,37.561,12.012,37.25z"/>
		<path fill="none" d="M31.283,21.794C23.977,29.099,16.813,36.547,9.969,43.96L31.283,21.794z"/>
		<path fill="#393837" d="M84.199,74.699l-0.003-0.001l-0.002-0.003v0.001v0.001l-0.004,0.005l0.004-0.001l0.003-0.001l0.002,0.006
			c2.789,6.728,5.574,13.454,8.32,20.079c2.742,6.625,5.445,13.148,8.064,19.476c2.029-0.842,4.002-1.854,5.904-3.019
			c2.836-1.734,5.516-3.819,7.969-6.272c0.521-0.521,1.025-1.053,1.514-1.593c0.168-0.188,0.326-0.383,0.492-0.573
			c0.313-0.356,0.625-0.713,0.922-1.079c0.184-0.224,0.354-0.455,0.529-0.681c0.266-0.341,0.535-0.679,0.789-1.025
			c0.18-0.242,0.346-0.49,0.518-0.735c0.211-0.299,0.43-0.596,0.629-0.897c0.053-0.075,0.102-0.149,0.15-0.226
			c0.367-0.562,0.721-1.129,1.063-1.702c0.002-0.002,0.002-0.005,0.004-0.007c0.049-0.082,0.092-0.167,0.141-0.249
			c0.059-0.102,0.113-0.204,0.172-0.306c0.223-0.39,0.449-0.778,0.658-1.175c0.002-0.002,0.002-0.004,0.004-0.006
			c0.107-0.203,0.205-0.411,0.309-0.615c0.023-0.044,0.045-0.089,0.066-0.134c0.172-0.337,0.348-0.674,0.51-1.015
			c0-0.001,0-0.002,0.002-0.003c0.123-0.26,0.232-0.525,0.352-0.787c0.004-0.011,0.01-0.021,0.014-0.032
			c0.154-0.346,0.316-0.69,0.461-1.04l0.004-0.007C111.105,85.843,97.656,80.271,84.199,74.699z"/>
		<path fill="none" d="M100.586,114.261c2.027-0.842,4-1.854,5.904-3.019L100.586,114.261z"/>
		<path fill="#3A3938" d="M84.199,74.699c13.457,5.572,26.906,11.144,39.559,16.383c0.541-1.309,1.018-2.637,1.424-3.982
			c1.223-4.035,1.832-8.219,1.832-12.4c0-5.577-1.088-11.153-3.26-16.383c-11.068,4.586-22.748,9.422-34.51,14.293
			C87.563,73.306,85.883,74.003,84.199,74.699z"/>
		<path fill="none" d="M127.014,74.699c0,4.182-0.609,8.365-1.832,12.4L127.014,74.699z"/>
		<path fill="#363534" d="M84.19,74.703C73.893,85.002,63.594,95.3,53.923,104.971c0.034,0.034,0.067,0.067,0.103,0.103
			c0.295,0.293,0.601,0.566,0.902,0.85c0.23,0.217,0.457,0.443,0.693,0.654c0.344,0.309,0.699,0.6,1.051,0.895
			c0.219,0.185,0.436,0.377,0.656,0.558c0.395,0.316,0.797,0.615,1.199,0.917c0.189,0.142,0.375,0.293,0.564,0.432
			c0.598,0.433,1.203,0.848,1.815,1.247c2.208,1.435,4.515,2.653,6.896,3.642c3.153-7.611,6.427-15.514,9.746-23.529
			C79.751,85.424,81.97,80.064,84.19,74.703z"/>
		<path fill="#383736" d="M84.199,74.707l-0.002-0.006l-0.003,0.001l-0.004,0.001c-2.222,5.361-4.439,10.722-6.641,16.032
			c-3.319,8.016-6.593,15.918-9.746,23.529c0.309,0.127,0.616,0.251,0.926,0.372c0.727,0.281,1.459,0.536,2.194,0.776
			c4.293,1.399,8.765,2.107,13.234,2.112c0.012,0,0.021,0,0.033,0l0,0c5.518,0,11.033-1.063,16.219-3.191
			c0.057-0.023,0.111-0.046,0.166-0.069l0.008-0.003c-2.619-6.326-5.322-12.851-8.066-19.476
			C89.773,88.16,86.988,81.434,84.199,74.707z"/>
		<path fill="none" d="M92.52,94.786c-2.746-6.625-5.531-13.353-8.32-20.079L92.52,94.786z"/>
		<path fill="none" d="M84.19,74.703c-2.222,5.361-4.439,10.722-6.641,16.032L84.19,74.703z"/>
		<path fill="#3A3A39" d="M116.809,47.003c-0.094-0.112-0.188-0.224-0.285-0.334c-0.66-0.761-1.342-1.51-2.064-2.234
			c-9.668,9.67-19.967,19.968-30.263,30.264l0.003,0.001c1.684-0.696,3.363-1.394,5.045-2.089
			c11.762-4.871,23.439-9.708,34.51-14.293C122.08,54.289,119.762,50.47,116.809,47.003z"/>
		<path fill="none" d="M114.459,44.435c0.723,0.725,1.404,1.474,2.064,2.234L114.459,44.435z"/>
		<path fill="none" d="M123.754,58.316c-11.07,4.586-22.748,9.422-34.51,14.293L123.754,58.316z"/>
		<path fill="#393837" d="M84.196,74.698c10.296-10.296,20.595-20.593,30.263-30.264c-2.242-2.24-4.674-4.17-7.236-5.81
			c-0.307-0.196-0.617-0.378-0.928-0.566c0.277,0.167,0.555,0.329,0.828,0.502c-2.102-1.337-4.289-2.483-6.545-3.42
			c0.564,0.235,1.127,0.483,1.684,0.744c-0.557-0.261-1.117-0.509-1.684-0.744c-5.24,12.651-10.809,26.1-16.384,39.555
			L84.196,74.698z M105.564,37.616c-0.271-0.158-0.549-0.305-0.822-0.456C105.016,37.312,105.293,37.458,105.564,37.616z
			 M103.926,36.711c-0.24-0.126-0.484-0.241-0.729-0.362C103.441,36.47,103.684,36.585,103.926,36.711z"/>
		<path fill="#373635" d="M107.123,38.561c-0.273-0.173-0.551-0.335-0.828-0.502c0.311,0.188,0.621,0.37,0.928,0.566
			c2.563,1.64,4.994,3.569,7.236,5.81c8.111-8.109,15.781-15.78,22.641-22.64c-0.236-0.236-0.471-0.472-0.707-0.707
			c-0.201-0.201-0.404-0.403-0.605-0.604c-0.305-0.304-0.609-0.604-0.914-0.907c-0.1-0.102-0.201-0.201-0.303-0.301
			c-6.057-6.001-12.193-11.894-18.314-17.574c-0.199-0.186-0.396-0.369-0.598-0.554c-0.125-0.115-0.25-0.231-0.375-0.348
			c-0.115-0.106-0.232-0.214-0.348-0.32c-3.084,7.447-6.459,15.597-10.035,24.227c-0.617,1.49-1.24,2.993-1.867,4.511
			c-0.176,0.422-0.348,0.837-0.523,1.261c-0.637,1.541-1.281,3.096-1.932,4.662C102.834,36.077,105.021,37.224,107.123,38.561z"/>
		<path fill="#373635" d="M103.197,36.349c0.244,0.121,0.486,0.236,0.729,0.362C103.684,36.585,103.441,36.47,103.197,36.349z"/>
		<path fill="#373635" d="M100.578,35.141c0.566,0.235,1.127,0.483,1.684,0.744C101.705,35.625,101.143,35.376,100.578,35.141z"/>
		<path fill="#373635" d="M104.742,37.16c0.273,0.151,0.551,0.298,0.822,0.456C105.293,37.458,105.016,37.312,104.742,37.16z"/>
		<path fill="#383735" d="M84.19,74.703l0.004-0.005v-0.001v-0.001c5.575-13.455,11.144-26.902,16.384-39.555
			c-0.652-0.271-1.313-0.524-1.975-0.763c-0.24-0.086-0.482-0.158-0.725-0.239c-0.426-0.144-0.852-0.292-1.279-0.423
			c-0.33-0.1-0.666-0.183-0.996-0.274c-0.346-0.096-0.686-0.198-1.029-0.285c-0.369-0.093-0.738-0.166-1.109-0.248
			c-0.313-0.069-0.625-0.148-0.939-0.21c-0.379-0.075-0.76-0.133-1.141-0.197c-0.309-0.053-0.613-0.114-0.924-0.16
			c-0.391-0.058-0.785-0.098-1.178-0.145c-0.299-0.036-0.6-0.081-0.898-0.11c-0.389-0.038-0.775-0.059-1.166-0.086
			c-0.307-0.021-0.611-0.052-0.918-0.067c-0.379-0.019-0.76-0.02-1.139-0.027c-0.313-0.007-0.625-0.023-0.939-0.023
			c-0.01,0-0.021,0-0.03,0c-0.017,0-0.029,0-0.044,0c-0.404,0-0.809,0.018-1.212,0.028c-0.223,0.006-0.443,0.006-0.664,0.016
			c-0.4,0.019-0.802,0.051-1.201,0.08c-0.236,0.018-0.475,0.027-0.711,0.049c-0.388,0.035-0.773,0.084-1.162,0.129
			c-0.248,0.029-0.496,0.053-0.744,0.085c-0.369,0.051-0.736,0.113-1.104,0.173c-0.265,0.043-0.53,0.079-0.796,0.128
			c-0.352,0.063-0.7,0.141-1.052,0.213c-0.278,0.058-0.56,0.109-0.837,0.174c-0.335,0.076-0.669,0.165-1.002,0.25
			c-0.291,0.074-0.583,0.143-0.873,0.223c-0.32,0.088-0.639,0.189-0.958,0.285c-0.299,0.09-0.599,0.176-0.896,0.273
			c-0.31,0.101-0.615,0.212-0.923,0.319c-0.252,0.09-0.507,0.171-0.758,0.265c-0.103,0.038-0.205,0.077-0.308,0.116
			c-0.005,0.002-0.011,0.004-0.019,0.006c-0.019,0.007-0.037,0.015-0.058,0.021c-0.042,0.018-0.085,0.033-0.127,0.049
			c-0.314,0.122-0.627,0.248-0.939,0.377l-0.003,0.001c-2.013,0.837-3.973,1.839-5.865,2.993c-0.09,0.055-0.179,0.109-0.267,0.164
			c-2.753,1.708-5.358,3.749-7.749,6.138c-0.847,0.848-1.641,1.729-2.402,2.626c-0.045,0.054-0.092,0.107-0.137,0.161
			c-0.357,0.427-0.705,0.857-1.044,1.293c-2.37,3.053-4.276,6.349-5.709,9.797l-0.002,0.004c-0.271,0.654-0.526,1.313-0.764,1.978
			c-1.658,4.63-2.49,9.49-2.497,14.353c-0.008,5.597,1.079,11.193,3.261,16.443c0.259,0.623,0.533,1.241,0.822,1.854
			c0.002,0.002,0.003,0.005,0.004,0.008c0.06,0.125,0.127,0.248,0.188,0.374c0.037,0.078,0.078,0.155,0.116,0.232
			c0.199,0.404,0.396,0.811,0.607,1.209c0.002,0.003,0.003,0.007,0.006,0.011c0.092,0.175,0.194,0.346,0.291,0.519
			c0.032,0.062,0.067,0.121,0.103,0.182c0.199,0.358,0.396,0.72,0.606,1.074c0.002,0.004,0.004,0.009,0.007,0.013
			c0.122,0.206,0.255,0.405,0.382,0.609c0.025,0.042,0.052,0.083,0.078,0.124c0.208,0.334,0.412,0.671,0.631,1.001
			c0.003,0.003,0.005,0.007,0.007,0.011c0.149,0.226,0.312,0.445,0.465,0.669c0.018,0.024,0.035,0.049,0.053,0.073
			c0.22,0.318,0.438,0.639,0.667,0.951c0.002,0.002,0.003,0.005,0.005,0.007c0.175,0.238,0.361,0.47,0.541,0.704
			c0.01,0.014,0.02,0.026,0.029,0.039c0.233,0.305,0.463,0.609,0.707,0.908c0,0.001,0.002,0.003,0.002,0.004
			c0.199,0.243,0.406,0.48,0.61,0.72c0.005,0.005,0.009,0.01,0.013,0.015c0.248,0.291,0.492,0.584,0.748,0.87
			c0.002,0,0.002,0,0.002,0c0.219,0.243,0.446,0.48,0.672,0.72c0.002,0.001,0.002,0.001,0.003,0.002
			c0.308,0.327,0.608,0.657,0.93,0.977C63.595,95.299,73.893,85.001,84.19,74.703z M84.224,31.881
			c4.196,0.003,8.388,0.622,12.435,1.854C92.611,32.503,88.418,31.884,84.224,31.881z"/>
		<path fill="none" d="M44.63,58.316c-0.271,0.654-0.526,1.313-0.764,1.978L44.63,58.316z"/>
		<path fill="none" d="M51.385,47.223c-0.356,0.427-0.705,0.857-1.043,1.293L51.385,47.223z"/>
		<path fill="none" d="M67.805,35.141c-2.013,0.836-3.973,1.838-5.865,2.993L67.805,35.141z"/>
		<path fill="none" d="M84.194,74.695c5.575-13.455,11.144-26.902,16.384-39.555L84.194,74.695z"/>
	</g>
	<g>
		<path fill="none" d="M79.993,55.395c0.989-0.217,2.005-0.359,3.043-0.422C81.998,55.035,80.982,55.178,79.993,55.395z"/>
		<path fill="none" d="M74.147,50.162c-1.117-2.698-2.188-5.281-3.197-7.719C71.96,44.881,73.03,47.464,74.147,50.162z"/>
		<path fill="none" d="M85.574,54.99c2.137,0.149,4.18,0.639,6.074,1.421C89.754,55.629,87.711,55.14,85.574,54.99z"/>
		<path fill="none" d="M102.189,66.954c0.461,1.113,0.816,2.278,1.066,3.481C103.008,69.23,102.65,68.066,102.189,66.954z"/>
		<path fill="none" d="M64.718,74.409c0.001-1.587,0.193-3.128,0.553-4.606C64.911,71.281,64.718,72.822,64.718,74.409z"/>
		<path fill="none" d="M103.666,74.409c-0.002,1.579-0.191,3.112-0.547,4.582C103.475,77.521,103.666,75.988,103.666,74.409z"/>
		<path fill="none" d="M84.19,93.883c-2.641,0-5.156-0.525-7.454-1.476C79.034,93.357,81.551,93.883,84.19,93.883z"/>
		<path fill="none" d="M91.648,56.411c2.381,0.982,4.521,2.427,6.316,4.221C96.172,58.838,94.029,57.395,91.648,56.411z"/>
		<path fill="none" d="M91.648,56.411c1.77-4.277,3.457-8.351,5.016-12.113C95.105,48.062,93.42,52.134,91.648,56.411z"/>
		<path fill="none" d="M98.18,108.176c-1.193-2.88-2.48-5.988-3.838-9.267C95.699,102.188,96.986,105.296,98.18,108.176z"/>
		<path fill="none" d="M112.154,94.798c1.201-1.269,2.389-2.543,3.535-3.822C114.543,92.254,113.355,93.529,112.154,94.798z"/>
		<path fill="none" d="M100.76,105.906c2.58-2.314,5.154-4.758,7.664-7.267C105.914,101.149,103.34,103.592,100.76,105.906z"/>
		<path fill="none" d="M91.648,92.407c-1.438-3.463-2.926-7.059-4.438-10.705C88.725,85.35,90.213,88.944,91.648,92.407z"/>
		<path fill="none" d="M50.426,60.422c-0.184,4.587-0.273,9.287-0.273,13.987C50.15,69.709,50.242,65.009,50.426,60.422z"/>
		<path fill="none" d="M66.584,82.747c2.059,4.352,5.687,7.815,10.152,9.661C72.271,90.563,68.643,87.098,66.584,82.747z"/>
		<path fill="none" d="M91.648,92.407c4.764-1.967,8.572-5.778,10.541-10.542C100.223,86.629,96.412,90.439,91.648,92.407z"/>
		<path fill="none" d="M50.426,88.396c4.43-1.836,9.399-3.895,14.703-6.092C59.825,84.502,54.855,86.561,50.426,88.396z"/>
		<path fill="none" d="M54.904,103.696c-7.791-2.616-14.723-5.57-19.438-8.623C40.184,98.126,47.113,101.081,54.904,103.696z"/>
		<path fill="none" d="M45.268,58.286c-1.143-0.474-2.236-0.926-3.285-1.36C43.031,57.36,44.126,57.814,45.268,58.286z"/>
		<path fill="none" d="M38.559,62.907c-0.832-2.066-1.625-4.067-2.396-6.006C36.934,58.839,37.727,60.84,38.559,62.907z"/>
		<path fill="none" d="M45.051,70.991c1.641-3.454,3.437-7.006,5.375-10.569C48.487,63.984,46.691,67.537,45.051,70.991z"/>
		<path fill="none" d="M98.18,108.176c-4.75,2.584-9.482,4.915-13.988,6.963C88.697,113.09,93.43,110.76,98.18,108.176z"/>
		<path fill="none" d="M106.395,65.212c-1.375,0.57-2.779,1.151-4.205,1.742C103.615,66.363,105.02,65.782,106.395,65.212z"/>
		<path fill="none" d="M121.641,81.311c-1.16,2.341-2.391,4.711-3.682,7.086C119.25,86.021,120.479,83.651,121.641,81.311z"/>
		<path fill="none" d="M124.922,74.409c-1.023,2.252-2.119,4.562-3.281,6.901C122.803,78.971,123.898,76.662,124.922,74.409z"/>
		<path fill="none" d="M98.18,40.643c2.576,2.223,5.168,4.594,7.715,7.052C103.348,45.236,100.756,42.865,98.18,40.643z"/>
		<path fill="none" d="M57.465,38.068c1.042-2.641,2.118-5.104,3.219-7.319C59.583,32.966,58.507,35.429,57.465,38.068z"/>
		<path fill="none" d="M98.18,40.643c0.797-1.926,1.553-3.747,2.262-5.459C99.73,36.896,98.975,38.716,98.18,40.643z"/>
		<path fill="none" d="M114.303,61.937c-2.51,1.039-5.154,2.136-7.908,3.275C109.148,64.072,111.793,62.976,114.303,61.937z"/>
		<path fill="none" d="M60.684,30.75c0.551-1.108,1.106-2.155,1.668-3.132C61.79,28.594,61.233,29.641,60.684,30.75z"/>
		<path fill="none" d="M84.19,33.68c3.755-1.712,7.317-3.207,10.71-4.582C91.51,30.473,87.945,31.967,84.19,33.68z"/>
		<path fill="none" d="M94.9,29.098c1.693-0.687,3.348-1.344,4.957-1.983C98.248,27.754,96.596,28.411,94.9,29.098z"/>
		<path fill="none" d="M54.285,101.818c-1.393-4.305-2.686-8.837-3.859-13.422C51.6,92.98,52.893,97.514,54.285,101.818z"/>
		<path fill="none" d="M63.823,123.584c6.106-2.469,12.863-5.019,20.367-8.445C76.687,118.564,69.931,121.115,63.823,123.584z"/>
		<path fill="none" d="M117.959,88.396c0.182-4.588,0.273-9.287,0.273-13.987C118.232,79.109,118.141,83.809,117.959,88.396z"/>
		<path fill="none" d="M35.018,54.041c2.023,0.838,4.349,1.801,6.967,2.886C39.365,55.841,37.041,54.878,35.018,54.041z"/>
		<path fill="none" d="M104.559,25.235c-1.525,0.616-3.094,1.238-4.701,1.879C101.467,26.474,103.033,25.852,104.559,25.235z"/>
		<path fill="#63B5E3" d="M132.902,55.193c-0.73,1.823-1.477,3.706-2.25,5.646c-0.094,0.235-0.188,0.471-0.283,0.708
			c-0.283,0.71-0.572,1.427-0.865,2.153c-0.174,0.424-0.346,0.851-0.521,1.28c-1.23,3.005-2.563,6.145-4.061,9.429
			c1.498,3.284,2.83,6.423,4.061,9.429c0.176,0.429,0.35,0.856,0.521,1.28c0.342,0.848,0.678,1.684,1.01,2.51
			c0.824,2.065,1.613,4.063,2.389,5.997c0.156,0.387,0.311,0.771,0.465,1.153c0-13.579,0-27.158,0-40.737
			C133.211,54.422,133.059,54.807,132.902,55.193z"/>
		<path fill="#2B8BC4" d="M113.479,103.696c-0.084,0.251-0.17,0.502-0.256,0.751c-2.551,7.483-5.414,14.122-8.365,18.687
			c-0.102,0.152-0.197,0.302-0.299,0.449c11.186-5.808,22.998-17.624,28.807-28.806c-0.146,0.099-0.297,0.196-0.449,0.296
			C128.201,98.126,121.27,101.081,113.479,103.696z"/>
		<path fill="#ACD5F1" d="M105.887,27.365c2.393,4.107,4.707,9.505,6.824,15.521c0.26,0.736,0.516,1.482,0.77,2.236
			c0.502,0.168,1.002,0.339,1.496,0.51c5.316,1.842,10.178,3.839,14.133,5.911c0.195,0.102,0.389,0.205,0.58,0.308
			c0.164,0.089,0.326,0.178,0.486,0.266c0.627,0.345,1.229,0.69,1.801,1.04c0.484,0.294,0.947,0.589,1.391,0.885
			c-5.809-11.182-17.623-22.998-28.807-28.806c0.1,0.146,0.197,0.297,0.297,0.448C105.201,26.217,105.545,26.777,105.887,27.365z"/>
		<path fill="#C1DDF3" d="M94.9,29.098c1.693-0.687,3.348-1.344,4.957-1.983c1.607-0.641,3.176-1.263,4.703-1.879
			c-6.789,0-13.58,0-20.37,0c0,2.172,0,5.044,0,8.444C87.945,31.967,91.51,30.473,94.9,29.098z"/>
		<path fill="#0088CE" d="M84.19,123.584c6.79,0,13.581,0,20.368,0c-6.105-2.469-12.861-5.019-20.368-8.445
			C84.19,118.539,84.19,121.412,84.19,123.584z"/>
		<path fill="#005399" d="M63.823,123.584c6.789,0,13.578,0,20.367,0c0-2.172,0-5.044,0-8.445
			C76.687,118.564,69.931,121.115,63.823,123.584z"/>
		<path fill="#42A4D4" d="M36.896,52.862c1.613-0.954,3.435-1.896,5.418-2.817c1.322-0.615,2.72-1.221,4.175-1.814
			c2.185-0.894,4.505-1.762,6.918-2.598c0.495-0.171,0.993-0.342,1.497-0.51c0.084-0.251,0.169-0.502,0.254-0.751
			c0.17-0.499,0.342-0.994,0.516-1.485c0.086-0.246,0.172-0.489,0.26-0.733c0.502-1.399,1.012-2.765,1.531-4.083
			c1.043-2.641,2.118-5.104,3.22-7.319c0.55-1.108,1.105-2.155,1.667-3.132c0.194-0.34,0.391-0.671,0.586-0.993
			c0.196-0.322,0.394-0.636,0.59-0.94c0.1-0.151,0.197-0.302,0.297-0.448c-11.184,5.808-22.998,17.624-28.807,28.806
			c0.147-0.099,0.297-0.197,0.449-0.296C35.923,53.449,36.4,53.155,36.896,52.862z"/>
		<path fill="#005CA0" d="M62.937,122.194c-0.489-0.807-0.978-1.667-1.459-2.578c-0.194-0.364-0.388-0.736-0.578-1.116
			c-0.576-1.14-1.146-2.348-1.708-3.613c-0.188-0.422-0.372-0.851-0.56-1.286c-0.185-0.435-0.368-0.875-0.553-1.321
			c-0.183-0.446-0.366-0.898-0.547-1.356s-0.362-0.921-0.54-1.389c-0.18-0.468-0.357-0.941-0.534-1.419
			c-0.265-0.717-0.526-1.444-0.786-2.182c-0.259-0.736-0.516-1.482-0.77-2.236c-7.79-2.616-14.721-5.57-19.438-8.623
			c-0.152-0.1-0.302-0.197-0.449-0.296c5.809,11.182,17.623,22.997,28.807,28.806c-0.101-0.147-0.197-0.297-0.297-0.449
			C63.33,122.83,63.134,122.516,62.937,122.194z"/>
		<path fill="#0080BC" d="M39.936,82.542c0.539-1.305,1.101-2.634,1.687-3.989c0.392-0.903,0.793-1.817,1.208-2.745
			c0.207-0.463,0.418-0.929,0.632-1.397c-0.214-0.469-0.425-0.936-0.632-1.398c-1.072-2.395-2.059-4.712-2.984-6.956
			c-0.441-1.065-0.867-2.114-1.285-3.147c-0.834-2.066-1.625-4.067-2.396-6.006c-0.386-0.97-0.768-1.923-1.146-2.86
			c0,13.579,0,27.158,0,40.737c0.771-1.909,1.552-3.881,2.363-5.919C38.191,86.821,39.035,84.716,39.936,82.542z"/>
		<path fill="#92CDF0" d="M117.959,60.422c2.584,4.75,4.914,9.482,6.963,13.987c1.498-3.284,2.83-6.423,4.061-9.429
			c0.176-0.43,0.35-0.856,0.521-1.28c0.293-0.727,0.582-1.443,0.865-2.153c0.096-0.237,0.189-0.473,0.283-0.708
			c0.773-1.939,1.52-3.822,2.25-5.646c0.154-0.388,0.309-0.771,0.463-1.153c-2.885,1.195-6.385,2.645-10.477,4.339
			C121.33,59.025,119.689,59.706,117.959,60.422z"/>
		<path fill="none" d="M128.98,64.98c-1.229,3.006-2.563,6.146-4.061,9.43L128.98,64.98z"/>
		<path fill="none" d="M130.652,60.839c-0.094,0.235-0.188,0.471-0.283,0.708L130.652,60.839z"/>
		<path fill="#5BAEE2" d="M113.225,104.448c0.086-0.25,0.17-0.5,0.256-0.751c-1.215,0.408-2.447,0.808-3.699,1.199
			c-3.754,1.173-7.658,2.271-11.602,3.28c0.854,2.059,1.654,3.996,2.406,5.812c0.25,0.604,0.494,1.195,0.734,1.773
			c0.271,0.66,0.541,1.303,0.799,1.928c0.775,1.873,1.484,3.586,2.127,5.136c0.107,0.258,0.211,0.512,0.314,0.761
			c0.1-0.146,0.195-0.297,0.297-0.449C107.809,118.57,110.674,111.932,113.225,104.448z"/>
		<path fill="#299AD6" d="M102.119,117.688c-0.258-0.625-0.525-1.268-0.799-1.928c-0.24-0.578-0.484-1.169-0.734-1.773
			c-0.752-1.815-1.555-3.752-2.406-5.812c-4.75,2.584-9.482,4.915-13.988,6.963c7.506,3.427,14.262,5.977,20.369,8.445
			c-0.104-0.249-0.207-0.502-0.314-0.761C103.604,121.273,102.895,119.561,102.119,117.688z"/>
		<path fill="none" d="M101.32,115.76c-0.24-0.578-0.484-1.169-0.734-1.773L101.32,115.76z"/>
		<path fill="#5BB0D9" d="M62.937,26.625c-0.195,0.322-0.392,0.653-0.587,0.993c-0.561,0.977-1.116,2.022-1.666,3.132
			c-1.102,2.216-2.178,4.679-3.22,7.319c-0.521,1.319-1.03,2.684-1.532,4.083c-0.086,0.243-0.172,0.487-0.26,0.733
			c-0.173,0.491-0.345,0.986-0.515,1.485c-0.085,0.25-0.17,0.5-0.254,0.751c1.622-0.545,3.282-1.075,4.97-1.59
			c1.688-0.516,3.402-1.015,5.135-1.498c1.72-0.479,3.452-0.944,5.195-1.392c-0.162-0.392-0.323-0.778-0.481-1.162
			c-0.699-1.692-1.363-3.296-1.992-4.814c-1.511-3.644-2.814-6.794-3.906-9.431c-0.101,0.146-0.197,0.297-0.297,0.448
			C63.33,25.989,63.134,26.302,62.937,26.625z"/>
		<path fill="#007BB8" d="M54.904,103.696c-0.208-0.621-0.415-1.248-0.619-1.878c-1.393-4.305-2.686-8.836-3.859-13.422
			c-0.394,0.162-0.779,0.322-1.164,0.481c-1.646,0.681-3.209,1.329-4.689,1.943c-1.48,0.612-2.881,1.192-4.199,1.738
			c-1.662,0.688-3.195,1.324-4.594,1.903c-0.26,0.107-0.512,0.212-0.762,0.315c0.147,0.099,0.297,0.196,0.449,0.296
			C40.184,98.126,47.113,101.081,54.904,103.696z"/>
		<path fill="#0088C5" d="M40.372,92.56c1.317-0.546,2.72-1.126,4.199-1.738c1.481-0.614,3.045-1.263,4.69-1.943
			c0.383-0.159,0.771-0.319,1.162-0.481c-2.584-4.75-4.914-9.481-6.963-13.987c-0.214,0.469-0.425,0.935-0.632,1.397
			c-0.415,0.928-0.817,1.842-1.208,2.745c-0.586,1.355-1.146,2.685-1.688,3.989c-0.899,2.174-1.744,4.279-2.556,6.317
			s-1.592,4.01-2.362,5.919c0.25-0.104,0.502-0.208,0.762-0.315C37.176,93.884,38.71,93.249,40.372,92.56z"/>
		<path fill="none" d="M39.936,82.542c-0.9,2.174-1.744,4.279-2.557,6.317L39.936,82.542z"/>
		<path fill="none" d="M49.262,88.878c-1.646,0.681-3.209,1.329-4.689,1.943L49.262,88.878z"/>
		<path fill="#73C1EC" d="M130.514,87.628c-0.332-0.826-0.668-1.663-1.01-2.51c-0.174-0.424-0.346-0.852-0.521-1.28
			c-1.23-3.005-2.563-6.145-4.061-9.429c-1.023,2.252-2.119,4.562-3.281,6.901c-1.16,2.341-2.391,4.71-3.682,7.085
			c0.67,0.277,1.322,0.549,1.967,0.815c0.771,0.32,1.527,0.632,2.264,0.938c4.395,1.82,8.129,3.367,11.178,4.63
			c-0.154-0.383-0.309-0.767-0.465-1.153C132.127,91.691,131.338,89.693,130.514,87.628z"/>
		<path fill="none" d="M132.902,93.625c-0.775-1.934-1.564-3.932-2.391-5.997L132.902,93.625z"/>
		<path fill="none" d="M129.504,85.118c0.342,0.848,0.678,1.684,1.01,2.51L129.504,85.118z"/>
		<path fill="#3398D4" d="M119.926,89.211c-0.645-0.267-1.297-0.538-1.967-0.814c-1.348,5.258-2.85,10.446-4.479,15.3
			c7.791-2.616,14.721-5.57,19.438-8.623c0.152-0.1,0.301-0.197,0.449-0.296c-3.049-1.264-6.783-2.811-11.178-4.629
			C121.453,89.843,120.697,89.531,119.926,89.211z"/>
		<path fill="none" d="M117.959,88.396c0.67,0.276,1.322,0.548,1.967,0.814L117.959,88.396z"/>
		<path fill="#C7E0F4" d="M94.9,29.098c-3.393,1.375-6.955,2.869-10.71,4.582c2.53,1.151,5.136,2.395,7.771,3.717
			c0.941,0.473,1.885,0.953,2.832,1.446c1.127,0.585,2.254,1.186,3.385,1.8c0.799-1.926,1.553-3.747,2.264-5.459
			c0.709-1.713,1.373-3.318,1.994-4.816c0.615-1.487,1.188-2.867,1.715-4.14c0.139-0.337,0.275-0.669,0.41-0.991
			c-1.527,0.616-3.096,1.238-4.703,1.879C98.248,27.754,96.596,28.411,94.9,29.098z"/>
		<path fill="#005BA0" d="M70.204,108.176c-0.812,1.96-1.578,3.812-2.299,5.55c-1.585,3.827-2.947,7.117-4.082,9.857
			c6.106-2.469,12.863-5.021,20.367-8.445C79.687,113.09,74.954,110.76,70.204,108.176z"/>
		<path fill="#5BB0D9" d="M45.268,58.286c0.57,0.235,1.152,0.478,1.748,0.724c1.097,0.455,2.232,0.925,3.408,1.412
			c1.348-5.257,2.85-10.447,4.479-15.3c-0.503,0.168-1.003,0.339-1.497,0.51c-2.413,0.836-4.733,1.704-6.918,2.597
			c-1.455,0.596-2.852,1.201-4.174,1.815c-1.984,0.922-3.805,1.863-5.42,2.817c-0.496,0.293-0.974,0.587-1.43,0.883
			c-0.152,0.099-0.302,0.197-0.449,0.296c2.023,0.838,4.349,1.801,6.967,2.886C43.031,57.36,44.126,57.814,45.268,58.286z"/>
		<path fill="none" d="M53.407,45.632c-2.413,0.836-4.733,1.704-6.918,2.597L53.407,45.632z"/>
		<path fill="none" d="M42.314,50.045c-1.983,0.922-3.805,1.863-5.418,2.817L42.314,50.045z"/>
		<path fill="none" d="M36.896,52.862c-0.496,0.293-0.975,0.587-1.43,0.883L36.896,52.862z"/>
		<path fill="#005399" d="M70.204,108.176c-3.285-0.842-6.545-1.744-9.713-2.701c-1.899-0.573-3.769-1.167-5.587-1.778
			c0.253,0.754,0.51,1.5,0.769,2.236c0.261,0.736,0.521,1.464,0.786,2.182c0.178,0.478,0.354,0.951,0.534,1.419
			c0.178,0.468,0.358,0.932,0.54,1.389c0.181,0.458,0.363,0.91,0.547,1.356s0.368,0.888,0.553,1.321
			c0.188,0.436,0.372,0.863,0.561,1.286c0.562,1.267,1.131,2.475,1.707,3.613c0.19,0.38,0.384,0.752,0.578,1.116
			c0.481,0.911,0.97,1.771,1.459,2.578c0.196,0.321,0.394,0.636,0.59,0.939c0.1,0.152,0.197,0.303,0.297,0.449
			c1.135-2.74,2.497-6.03,4.082-9.857C68.626,111.986,69.393,110.136,70.204,108.176z"/>
		<path fill="none" d="M62.937,122.194c0.196,0.321,0.394,0.636,0.59,0.939L62.937,122.194z"/>
		<path fill="none" d="M61.478,119.616c0.481,0.911,0.97,1.771,1.459,2.578L61.478,119.616z"/>
		<path fill="none" d="M60.899,118.5c0.19,0.38,0.384,0.752,0.578,1.116L60.899,118.5z"/>
		<path fill="none" d="M63.823,123.584c1.135-2.74,2.497-6.03,4.082-9.857L63.823,123.584z"/>
		<path fill="#0088C5" d="M38.559,62.907c0.418,1.033,0.845,2.083,1.285,3.147c0.928,2.244,1.912,4.562,2.985,6.956
			c0.207,0.463,0.418,0.93,0.632,1.398c0.512-1.126,1.042-2.268,1.589-3.418c1.642-3.454,3.438-7.006,5.374-10.569
			c-1.176-0.487-2.313-0.958-3.408-1.412c-0.596-0.246-1.178-0.486-1.748-0.724c-1.143-0.474-2.236-0.926-3.285-1.36
			c-2.617-1.085-4.941-2.048-6.967-2.886c0.381,0.938,0.762,1.892,1.146,2.86C36.934,58.839,37.727,60.84,38.559,62.907z"/>
		<path fill="#AAD6F2" d="M118.232,74.409c0,4.7-0.094,9.399-0.273,13.987c1.291-2.375,2.521-4.745,3.682-7.086
			c1.162-2.34,2.258-4.648,3.281-6.901c-2.049-4.505-4.379-9.237-6.963-13.987C118.141,65.009,118.232,69.709,118.232,74.409z"/>
		<path fill="#50AAE0" d="M112.154,94.798c-1.227,1.292-2.465,2.577-3.73,3.842c-2.51,2.509-5.084,4.952-7.664,7.267
			c-0.861,0.771-1.721,1.528-2.58,2.27c3.943-1.01,7.848-2.106,11.602-3.281c1.252-0.391,2.484-0.791,3.699-1.198
			c1.629-4.854,3.131-10.042,4.479-15.3c-0.742,0.858-1.498,1.72-2.27,2.579C114.543,92.254,113.355,93.529,112.154,94.798z"/>
		<path fill="none" d="M113.479,103.696c-1.213,0.407-2.447,0.808-3.697,1.198L113.479,103.696z"/>
		<path fill="#B7DAF3" d="M102.434,30.366c-0.619,1.499-1.283,3.104-1.992,4.816c-0.711,1.713-1.467,3.533-2.264,5.459
			c2.576,2.223,5.168,4.594,7.717,7.052c0.85,0.818,1.691,1.647,2.527,2.483s1.666,1.681,2.484,2.529
			c2.459,2.546,4.828,5.139,7.051,7.715c1.73-0.716,3.373-1.396,4.932-2.042c4.092-1.695,7.592-3.144,10.477-4.339
			c-0.441-0.296-0.904-0.591-1.391-0.885c-0.57-0.349-1.174-0.695-1.799-1.04c-0.162-0.088-0.322-0.178-0.486-0.266
			c-0.191-0.103-0.387-0.206-0.58-0.308c-3.957-2.072-8.816-4.069-14.133-5.911c-0.496-0.171-0.994-0.342-1.498-0.51
			c-0.252-0.754-0.51-1.5-0.77-2.236c-2.117-6.016-4.432-11.413-6.824-15.521c-0.342-0.587-0.686-1.148-1.027-1.682
			c-0.102-0.151-0.197-0.302-0.297-0.448c-0.135,0.321-0.271,0.653-0.41,0.991C103.623,27.499,103.053,28.878,102.434,30.366z"/>
		<path fill="none" d="M130.176,52.116c0.627,0.345,1.229,0.69,1.801,1.04L130.176,52.116z"/>
		<path fill="none" d="M105.887,27.365c-0.342-0.587-0.686-1.148-1.029-1.682L105.887,27.365z"/>
		<path fill="none" d="M129.109,51.543c0.193,0.102,0.389,0.205,0.58,0.308L129.109,51.543z"/>
		<path fill="none" d="M104.15,26.227c-0.527,1.272-1.1,2.652-1.715,4.14L104.15,26.227z"/>
		<path fill="#D1E5F4" d="M117.959,60.422c-1.182,0.49-2.402,0.995-3.656,1.515c-2.51,1.039-5.154,2.136-7.908,3.275
			c-1.375,0.57-2.777,1.151-4.205,1.742c0.461,1.113,0.818,2.278,1.068,3.481c0.266,1.283,0.408,2.611,0.408,3.974
			c0,1.579-0.191,3.112-0.547,4.582c-0.238,0.986-0.547,1.946-0.928,2.87l-0.002,0.004c0.355,0.146,0.713,0.294,1.064,0.439
			c1.77,0.732,3.498,1.449,5.186,2.148c1.012,0.418,2.008,0.832,2.982,1.236c2.283,0.944,4.467,1.85,6.535,2.707
			c0.182-4.588,0.273-9.287,0.273-13.987S118.141,65.009,117.959,60.422z"/>
		<path fill="#AFD4F1" d="M108.439,84.453c-1.688-0.699-3.416-1.416-5.186-2.148c-0.354-0.146-0.709-0.293-1.064-0.439
			c-1.969,4.765-5.777,8.574-10.541,10.542c0.145,0.355,0.293,0.711,0.439,1.064c0.293,0.707,0.582,1.408,0.869,2.104
			c0.469,1.129,0.93,2.241,1.383,3.334c1.357,3.278,2.646,6.387,3.838,9.267c0.859-0.741,1.721-1.498,2.58-2.27
			c2.58-2.314,5.154-4.758,7.664-7.267c1.268-1.266,2.506-2.551,3.73-3.842c1.201-1.269,2.389-2.543,3.535-3.822
			c0.771-0.859,1.527-1.721,2.27-2.58c-2.068-0.855-4.252-1.761-6.535-2.706C110.447,85.285,109.451,84.872,108.439,84.453z"/>
		<path fill="none" d="M111.424,85.689c2.281,0.944,4.467,1.85,6.535,2.706L111.424,85.689z"/>
		<path fill="#E1EBF4" d="M91.648,56.411c2.381,0.982,4.521,2.427,6.316,4.221c1.346,1.345,2.494,2.887,3.4,4.579
			c0.301,0.564,0.576,1.145,0.822,1.74v0.003c1.428-0.59,2.83-1.171,4.205-1.742c2.754-1.14,5.398-2.236,7.908-3.275
			c1.254-0.52,2.475-1.024,3.656-1.515c-2.223-2.576-4.594-5.168-7.051-7.715c-0.82-0.849-1.648-1.692-2.484-2.529
			s-1.68-1.666-2.529-2.483c-2.547-2.458-5.139-4.829-7.715-7.052c-0.49,1.183-0.996,2.402-1.516,3.656
			C95.105,48.062,93.42,52.134,91.648,56.411z"/>
		<path fill="none" d="M108.424,50.178c0.836,0.836,1.664,1.681,2.484,2.529L108.424,50.178z"/>
		<path fill="#D9E8F4" d="M94.795,38.843c-0.947-0.493-1.891-0.974-2.832-1.446c-2.637-1.323-5.24-2.565-7.771-3.717
			c0,2.051,0,4.293,0,6.689c4.701,0,9.4,0.091,13.988,0.272C97.049,40.028,95.92,39.428,94.795,38.843z"/>
		<path fill="none" d="M91.963,37.396c0.941,0.473,1.885,0.953,2.832,1.446L91.963,37.396z"/>
		<path fill="#0088CE" d="M84.19,108.45c0,2.396,0,4.639,0,6.688c4.507-2.048,9.237-4.379,13.987-6.963
			c-2.311,0.092-4.646,0.16-7.002,0.206C88.857,108.427,86.525,108.45,84.19,108.45z"/>
		<path fill="#E6EEF5" d="M85.574,54.99c2.137,0.149,4.18,0.639,6.074,1.421c1.77-4.277,3.457-8.351,5.016-12.113
			c0.52-1.254,1.025-2.474,1.516-3.656c-4.588-0.182-9.287-0.272-13.988-0.272c0,4.413,0,9.348,0,14.565
			C84.657,54.936,85.117,54.958,85.574,54.99z"/>
		<path fill="none" d="M84.19,40.369c4.7,0,9.401,0.091,13.987,0.272L84.19,40.369z"/>
		<path fill="#81CEF4" d="M92.959,95.575c-0.287-0.694-0.578-1.396-0.871-2.104c-0.146-0.354-0.293-0.708-0.439-1.064
			c-1.084,0.447-2.219,0.798-3.391,1.046c-1.313,0.277-2.67,0.429-4.066,0.429c0,5.218,0,10.153,0,14.567
			c2.334,0,4.666-0.023,6.986-0.068c2.354-0.046,4.691-0.114,7.002-0.206c-1.193-2.88-2.48-5.987-3.838-9.267
			C93.889,97.816,93.428,96.704,92.959,95.575z"/>
		<path fill="none" d="M91.178,108.382c-2.32,0.045-4.652,0.068-6.986,0.068L91.178,108.382z"/>
		<path fill="#2E83C5" d="M77.069,108.379c-2.308-0.045-4.601-0.113-6.865-0.203c4.75,2.584,9.482,4.915,13.986,6.963
			c0-2.05,0-4.293,0-6.688C81.812,108.45,79.434,108.426,77.069,108.379z"/>
		<path fill="#5DAFE2" d="M84.19,108.45c0-4.414,0-9.35,0-14.567c-2.641,0-5.156-0.525-7.454-1.476
			c-0.147,0.355-0.296,0.711-0.44,1.064c-0.551,1.326-1.091,2.63-1.621,3.911c-1.592,3.843-3.094,7.47-4.471,10.792
			c2.266,0.09,4.559,0.158,6.865,0.203C79.434,108.426,81.812,108.45,84.19,108.45z"/>
		<path fill="none" d="M77.069,108.379c-2.308-0.045-4.601-0.113-6.865-0.203L77.069,108.379z"/>
		<path fill="#CEE4F5" d="M74.147,50.162c0.838,2.022,1.702,4.111,2.589,6.249c1.042-0.432,2.134-0.771,3.257-1.018
			c0.989-0.217,2.005-0.359,3.043-0.422c0.383-0.021,0.768-0.037,1.154-0.037c0-5.218,0-10.152,0-14.565
			c-4.699,0-9.398,0.091-13.986,0.272c0.245,0.592,0.493,1.191,0.746,1.802C71.96,44.881,73.03,47.464,74.147,50.162z"/>
		<path fill="#99D4F5" d="M67.729,34.666c0.629,1.52,1.293,3.123,1.992,4.813c0.158,0.384,0.319,0.771,0.481,1.163
			c4.588-0.182,9.287-0.272,13.986-0.272c0-2.396,0-4.64,0-6.689c0-3.399,0-6.272,0-8.444c-6.789,0-13.578,0-20.367,0
			C64.915,27.872,66.22,31.021,67.729,34.666z"/>
		<path fill="none" d="M69.723,39.48c-0.699-1.692-1.363-3.296-1.992-4.814L69.723,39.48z"/>
		<path fill="#C4DFF3" d="M59.358,64.123c0.864,0.359,1.739,0.721,2.631,1.089c1.376,0.57,2.779,1.151,4.205,1.742v-0.001
			c1.967-4.765,5.776-8.575,10.542-10.542c-0.887-2.138-1.751-4.227-2.589-6.249c-1.117-2.698-2.188-5.281-3.197-7.719
			c-0.253-0.61-0.501-1.21-0.746-1.802c-2.696,2.326-5.41,4.815-8.07,7.396s-5.267,5.254-7.749,7.949
			c-0.527,0.571-1.053,1.146-1.568,1.72c-0.084,0.093-0.166,0.186-0.25,0.279c-0.728,0.812-1.441,1.625-2.141,2.435
			c1.182,0.49,2.4,0.995,3.655,1.515C55.778,62.64,57.544,63.371,59.358,64.123z"/>
		<path fill="#62B4E4" d="M76.296,93.472c0.146-0.354,0.293-0.708,0.44-1.064c-4.467-1.845-8.096-5.31-10.152-9.661
			c-0.138-0.291-0.268-0.584-0.39-0.882c-0.357,0.147-0.712,0.295-1.065,0.44c-5.304,2.197-10.273,4.256-14.704,6.091
			c0.699,0.812,1.414,1.624,2.142,2.437c0.084,0.092,0.166,0.185,0.25,0.278c0.674,0.749,1.356,1.495,2.05,2.241
			c0.112,0.122,0.226,0.243,0.339,0.364c1.186,1.271,2.398,2.535,3.628,3.786c3.691,3.75,7.549,7.376,11.372,10.673
			c1.377-3.323,2.879-6.95,4.471-10.792C75.205,96.103,75.745,94.798,76.296,93.472z"/>
		<path fill="none" d="M76.296,93.472c-0.551,1.326-1.091,2.63-1.621,3.911L76.296,93.472z"/>
		<path fill="#96D0F3" d="M66.194,81.864l-0.002-0.001c-0.564-1.367-0.978-2.813-1.219-4.315c-0.08-0.501-0.143-1.008-0.185-1.521
			c-0.045-0.534-0.072-1.072-0.072-1.618c0-1.587,0.193-3.128,0.553-4.606c0.236-0.979,0.545-1.933,0.925-2.85
			c-1.426-0.59-2.829-1.171-4.205-1.742c-0.892-0.369-1.767-0.729-2.631-1.089c-1.814-0.752-3.58-1.483-5.277-2.187
			c-1.255-0.52-2.476-1.024-3.655-1.515c-0.184,4.587-0.273,9.287-0.273,13.987s0.091,9.399,0.273,13.986
			c4.432-1.835,9.399-3.894,14.703-6.091C65.482,82.159,65.837,82.012,66.194,81.864z"/>
		<path fill="none" d="M50.426,60.422c1.182,0.49,2.4,0.995,3.655,1.515L50.426,60.422z"/>
		<path fill="#87CBEF" d="M52.814,57.708c0.518-0.574,1.041-1.148,1.568-1.72c2.483-2.695,5.09-5.368,7.75-7.949
			s5.374-5.07,8.07-7.396c-1.743,0.447-3.477,0.912-5.195,1.392c-1.731,0.483-3.446,0.982-5.135,1.498
			c-1.688,0.515-3.348,1.045-4.97,1.59c-1.63,4.853-3.134,10.042-4.479,15.3c0.699-0.811,1.414-1.623,2.143-2.435
			C52.648,57.894,52.732,57.801,52.814,57.708z"/>
		<path fill="none" d="M65.009,42.034c-1.731,0.483-3.446,0.982-5.135,1.498L65.009,42.034z"/>
		<path fill="none" d="M62.134,48.039c-2.66,2.581-5.267,5.254-7.749,7.949L62.134,48.039z"/>
		<path fill="none" d="M52.566,57.987c0.082-0.094,0.166-0.187,0.248-0.279L52.566,57.987z"/>
		<path fill="#3498CC" d="M55.204,93.717c-0.112-0.121-0.228-0.243-0.339-0.364c-0.691-0.745-1.376-1.493-2.051-2.241
			c-0.082-0.094-0.166-0.187-0.248-0.278c-0.729-0.813-1.442-1.625-2.143-2.437c1.176,4.586,2.469,9.118,3.86,13.423
			c0.204,0.631,0.411,1.258,0.619,1.878c1.819,0.611,3.687,1.205,5.587,1.778c3.168,0.957,6.428,1.859,9.713,2.701
			c-3.823-3.297-7.681-6.923-11.372-10.673C57.602,96.252,56.391,94.988,55.204,93.717z"/>
		<path fill="none" d="M54.904,103.696c-0.208-0.621-0.415-1.248-0.619-1.878L54.904,103.696z"/>
		<path fill="none" d="M58.832,97.502c-1.229-1.25-2.441-2.515-3.628-3.786L58.832,97.502z"/>
		<path fill="none" d="M50.426,88.396c0.698,0.811,1.413,1.623,2.141,2.436L50.426,88.396z"/>
		<path fill="none" d="M54.865,93.353c-0.692-0.745-1.376-1.493-2.051-2.241L54.865,93.353z"/>
		<path fill="#5CBDEC" d="M50.426,60.422c-1.938,3.563-3.734,7.115-5.375,10.569c-0.547,1.151-1.076,2.292-1.589,3.418
			c2.05,4.505,4.38,9.237,6.964,13.987c-0.184-4.588-0.273-9.287-0.273-13.987S50.242,65.009,50.426,60.422z"/>
		<path fill="#E6EEF5" d="M84.192,74.405H84.19l0,0l0,0l0,0v0.001v0.002l0.002-0.001V74.405l0.002,0.002
			c3.062,1.268,6.122,2.535,9.136,3.783c3.016,1.249,5.984,2.478,8.861,3.67c0.381-0.923,0.689-1.884,0.928-2.87
			c0.354-1.471,0.545-3.003,0.547-4.582c0-1.362-0.143-2.69-0.408-3.974c-0.25-1.204-0.607-2.369-1.068-3.481V66.95
			C96.434,69.335,90.314,71.869,84.192,74.405z"/>
		<path fill="#EAEFF4" d="M84.192,74.405c6.122-2.536,12.239-5.07,17.997-7.455c-0.246-0.597-0.521-1.177-0.824-1.74
			c-0.904-1.691-2.055-3.233-3.398-4.579c-1.795-1.794-3.938-3.238-6.318-4.221c-2.086,5.036-4.287,10.349-6.504,15.7
			C84.828,72.875,84.51,73.64,84.192,74.405z"/>
		<path fill="none" d="M101.365,65.211c-0.904-1.691-2.055-3.233-3.398-4.579L101.365,65.211z"/>
		<path fill="#A9DCF6" d="M84.19,74.409c0,6.625,0,13.251,0,19.474c1.396,0,2.755-0.15,4.065-0.429
			c1.172-0.249,2.307-0.599,3.393-1.046c-1.438-3.463-2.926-7.059-4.438-10.705C86.213,79.287,85.203,76.849,84.19,74.409z"/>
		<path fill="#CCE7FA" d="M84.194,74.408l-0.002-0.001v0.001l-0.002,0.001c1.013,2.438,2.021,4.877,3.021,7.293
			c1.512,3.646,3,7.242,4.438,10.705c4.764-1.968,8.572-5.778,10.541-10.542l0.002-0.004c-2.877-1.192-5.848-2.422-8.861-3.67
			S87.258,75.675,84.194,74.408z"/>
		<path fill="none" d="M84.194,74.408c3.062,1.268,6.122,2.535,9.136,3.783L84.194,74.408z"/>
		<path fill="none" d="M87.213,81.702c-1-2.416-2.01-4.854-3.021-7.293L87.213,81.702z"/>
		<path fill="#F4F4F5" d="M84.192,74.405c0.316-0.766,0.636-1.53,0.952-2.294c2.217-5.352,4.418-10.664,6.504-15.7
			c-1.895-0.782-3.939-1.271-6.074-1.421c-0.457-0.033-0.917-0.056-1.384-0.056c0,6.222,0,12.847,0,19.471H84.192z"/>
		<path fill="none" d="M84.19,54.936c0.467,0,0.927,0.022,1.384,0.056L84.19,54.936z"/>
		<path fill="#E0ECF6" d="M84.19,74.406L84.19,74.406c0-6.624,0-13.249,0-19.471c-0.388,0-0.771,0.015-1.154,0.037
			c-1.038,0.063-2.054,0.206-3.043,0.422c-1.123,0.247-2.215,0.585-3.257,1.018C79.12,62.167,81.654,68.284,84.19,74.406
			L84.19,74.406z"/>
		<path fill="#C8E6F9" d="M84.19,74.407L84.19,74.407L84.19,74.407c-2.536-6.123-5.07-12.24-7.454-17.996
			c-4.766,1.967-8.575,5.778-10.542,10.542v0.001c-0.38,0.917-0.688,1.87-0.925,2.85c-0.358,1.479-0.552,3.02-0.553,4.606
			c0,0.545,0.027,1.083,0.072,1.618c0.042,0.513,0.104,1.02,0.185,1.521c0.241,1.502,0.653,2.948,1.219,4.315l0.002,0.001
			c0.122,0.298,0.252,0.592,0.39,0.882c2.059,4.352,5.688,7.815,10.152,9.661c2.298,0.949,4.813,1.476,7.454,1.476
			c0-6.222,0-12.848,0-19.474V74.407L84.19,74.407z"/>
		<path fill="none" d="M66.584,82.747c-0.138-0.291-0.268-0.584-0.39-0.882L66.584,82.747z"/>
		<path fill="none" d="M64.79,76.027c0.042,0.513,0.104,1.02,0.185,1.521L64.79,76.027z"/>
	</g>
</g>
<g>
</g>
<g>
</g>
<g>
</g>
<g>
</g>
<g>
</g>
<g>
</g>
</svg>
